<?xml version="1.0" encoding="UTF-8"?>
<svg version="1.1" xmlns="http://www.w3.org/2000/svg" width="1024" height="1024">
<path d="M0 0 C-0.2165625 1.2375 -0.433125 2.475 -0.65625 3.75 C-7.34735893 44.36920074 0.51105824 82.9632977 20 119 C20.31404785 119.58797363 20.6280957 120.17594727 20.95166016 120.78173828 C33.14101088 143.44976441 49.42753206 164.10487778 66.48388672 183.27783203 C67.98138193 184.97885155 69.45019931 186.70029577 70.91015625 188.43359375 C77.1471444 195.83666862 83.62306882 202.95985584 90.3059082 209.96435547 C94.07346234 213.9180263 97.72772971 217.94076979 101.30541992 222.06689453 C103.97039623 225.10698709 106.73500713 228.05111905 109.5 231 C114.09219402 235.92535702 118.61633761 240.88726534 123 246 C123.89943145 247.03412225 124.79920324 248.06794853 125.69921875 249.1015625 C132.73035787 257.20427702 139.47389484 265.48601926 146 274 C146.49000488 274.63695801 146.98000977 275.27391602 147.48486328 275.93017578 C180.60966705 319.10635041 207.86222908 371.764477 208.203125 427.453125 C208.21013931 428.22719193 208.21715363 429.00125885 208.22438049 429.79878235 C208.24177733 432.28258157 208.24823281 434.76614208 208.25 437.25 C208.25067474 438.10036835 208.25134949 438.95073669 208.25204468 439.82687378 C208.23571597 452.78255746 207.70075718 465.28931448 205 478 C204.82839355 478.84691406 204.65678711 479.69382812 204.47998047 480.56640625 C200.63573954 499.22763659 194.56986948 516.99061726 186 534 C185.64067383 534.73041504 185.28134766 535.46083008 184.91113281 536.21337891 C177.07342428 552.09784578 167.46939674 566.48843324 156 580 C155.38769531 580.72316406 154.77539062 581.44632813 154.14453125 582.19140625 C142.81422997 595.14345278 130.60747473 607.55964492 116.70654297 617.7421875 C114.95360856 619.03419295 113.22810434 620.35744528 111.50390625 621.6875 C93.40787901 635.49788472 73.46586472 645.94111108 52.6875 655.0625 C51.31573608 655.67291138 51.31573608 655.67291138 49.91625977 656.2956543 C49.06088623 656.66343994 48.2055127 657.03122559 47.32421875 657.41015625 C46.56197998 657.74152588 45.79974121 658.07289551 45.0144043 658.41430664 C43 659 43 659 40 658 C40.58265625 657.55011719 41.1653125 657.10023438 41.765625 656.63671875 C65.90009961 637.70102247 88.98439348 612.79524956 96 582 C96.22171875 581.07832031 96.4434375 580.15664063 96.671875 579.20703125 C102.41295697 551.0834878 93.35854617 523.16068961 78 499.625 C74.2595212 494.207243 70.20906759 489.05983657 66 484 C66.04640625 485.02738281 66.0928125 486.05476563 66.140625 487.11328125 C66.48423056 497.9100736 65.73499313 506.79774676 58.625 515.5 C53.97127144 520.29118045 50.20477238 522.13942692 43.5 522.375 C37.40826005 522.18514903 33.89546636 520.67506329 29.3125 516.625 C24.06832844 510.67215661 21.94903532 504.52911413 22.02246094 496.56323242 C22.67687676 488.78035854 24.48255688 481.46847744 26.5 473.9375 C28.63194808 465.95339723 30.53385203 458.26938924 31 450 C31.04817871 449.22825439 31.09635742 448.45650879 31.14599609 447.66137695 C32.31618188 424.04614875 22.6644276 400.33334792 7 383 C1.05977388 376.87379995 -5.36853212 372.76580845 -13 369 C-12.67 369.99 -12.34 370.98 -12 372 C-9.46227785 408.36015017 -29.81448073 436.69924014 -52.453125 463.0234375 C-55.60238145 466.70401022 -58.65424152 470.45814531 -61.70703125 474.21875 C-63.7143399 476.65350938 -65.7639784 479.04441944 -67.83178711 481.42773438 C-83.89866535 500.06103094 -99.73738957 520.84421693 -106 545 C-106.22945312 545.85851562 -106.45890625 546.71703125 -106.6953125 547.6015625 C-113.47421427 575.385512 -106.05750473 601.94636145 -92.24609375 626.0625 C-84.82779109 638.17963475 -75.09276132 649.04332085 -65 659 C-92.79022605 651.37456254 -119.16595524 636.96541546 -143 621 C-143.63728027 620.57509277 -144.27456055 620.15018555 -144.93115234 619.71240234 C-165.95086822 605.56656528 -185.14154952 587.52579205 -200 567 C-201.14662109 565.43572266 -201.14662109 565.43572266 -202.31640625 563.83984375 C-212.5695582 549.44976789 -220.8426413 534.13347821 -228 518 C-228.28858887 517.35353516 -228.57717773 516.70707031 -228.87451172 516.04101562 C-236.88580383 497.84276367 -241.17401628 478.6112534 -244 459 C-244.1045752 458.30672607 -244.20915039 457.61345215 -244.31689453 456.89916992 C-252.28082666 396.81351028 -230.01634989 336.3297071 -194 289 C-190.46719391 284.54947647 -186.75665478 280.26190108 -183 276 C-182.3296875 275.23042969 -181.659375 274.46085937 -180.96875 273.66796875 C-179.83792025 272.37098638 -178.70297092 271.07757532 -177.5625 269.7890625 C-176.46140831 268.52831251 -175.3797155 267.25048956 -174.3125 265.9609375 C-173.77625 265.31382812 -173.24 264.66671875 -172.6875 264 C-171.98173828 263.13375 -171.98173828 263.13375 -171.26171875 262.25 C-170 261 -170 261 -168 261 C-168 260.34 -168 259.68 -168 259 C-166.26303438 257.4169795 -164.45943503 255.90646276 -162.625 254.4375 C-161.62726563 253.63183594 -160.62953125 252.82617188 -159.6015625 251.99609375 C-157 250 -157 250 -155 249 C-155.268125 250.155 -155.53625 251.31 -155.8125 252.5 C-156.21176321 254.33258943 -156.60701172 256.1660547 -157 258 C-157.26425781 259.19882812 -157.52851563 260.39765625 -157.80078125 261.6328125 C-161.45654852 278.92558206 -161.38687811 296.7544761 -152.59375 312.625 C-145.87100109 322.64321406 -138.04457228 329.60049537 -126 332 C-114.21748653 332.97873914 -104.52288537 329.97683616 -95 323 C-86.02400526 315.18607601 -81.83507258 303.15877041 -80.78125 291.60083008 C-80.07430916 277.34860828 -82.15745072 263.91404443 -85 250 C-85.27622938 248.6408259 -85.5522609 247.28161157 -85.828125 245.92236328 C-85.97328049 245.2074321 -86.11843597 244.49250092 -86.26799011 243.75590515 C-87.03374273 239.98328843 -87.79867349 236.21050717 -88.5625 232.4375 C-88.71600922 231.68099152 -88.86951843 230.92448303 -89.02767944 230.14505005 C-93.38635073 208.60772986 -96.61462508 187.04269044 -96 165 C-95.97164062 163.84886719 -95.94328125 162.69773437 -95.9140625 161.51171875 C-95.11070446 142.78582531 -91.37946217 124.60393255 -85 107 C-84.76023437 106.33564941 -84.52046875 105.67129883 -84.2734375 104.98681641 C-73.96654021 76.91892646 -57.72850897 50.55215833 -37 29 C-36.2894043 28.25073242 -36.2894043 28.25073242 -35.56445312 27.48632812 C-9.3979967 0 -9.3979967 0 0 0 Z " fill="#3D95E1" transform="translate(541,171)"/>
<path d="M0 0 C-0.2165625 1.2375 -0.433125 2.475 -0.65625 3.75 C-7.34735893 44.36920074 0.51105824 82.9632977 20 119 C20.31404785 119.58797363 20.6280957 120.17594727 20.95166016 120.78173828 C33.14101088 143.44976441 49.42753206 164.10487778 66.48388672 183.27783203 C67.98138193 184.97885155 69.45019931 186.70029577 70.91015625 188.43359375 C77.1471444 195.83666862 83.62306882 202.95985584 90.3059082 209.96435547 C94.07346234 213.9180263 97.72772971 217.94076979 101.30541992 222.06689453 C103.97039623 225.10698709 106.73500713 228.05111905 109.5 231 C114.09219402 235.92535702 118.61633761 240.88726534 123 246 C123.89943145 247.03412225 124.79920324 248.06794853 125.69921875 249.1015625 C132.73035787 257.20427702 139.47389484 265.48601926 146 274 C146.49000488 274.63695801 146.98000977 275.27391602 147.48486328 275.93017578 C157.16683281 288.55003642 166.04426355 301.48243546 174.125 315.1875 C174.61105713 316.0019458 175.09711426 316.8163916 175.59790039 317.65551758 C176.04254639 318.42275146 176.48719238 319.18998535 176.9453125 319.98046875 C177.34250488 320.66004639 177.73969727 321.33962402 178.14892578 322.03979492 C179 324 179 324 179 328 C173.25 326.125 173.25 326.125 171 325 C172.05875074 328.40312738 173.00902154 331.01353231 175 334 C174.34 334.33 173.68 334.66 173 335 C172.34 335.99 171.68 336.98 171 338 C169.68 337.67 168.36 337.34 167 337 C166.67 335.68 166.34 334.36 166 333 C165.34 333.66 164.68 334.32 164 335 C163.34 335 162.68 335 162 335 C161.34 334.01 160.68 333.02 160 332 C159.34 331.67 158.68 331.34 158 331 C158 328.03 158 325.06 158 322 C160.58789062 324.34375 160.58789062 324.34375 163.17578125 326.6875 C165.03131335 328.29201498 165.03131335 328.29201498 168 328 C166.64567309 326.64567309 165.2697269 325.31268414 163.875 324 C162 322 162 322 162 320 C162.66 319.34 163.32 318.68 164 318 C161.09399739 316.74335022 159.20395416 316 156 316 C155.34 315.67 154.68 315.34 154 315 C153.34 315.66 152.68 316.32 152 317 C151.401875 316.835 150.80375 316.67 150.1875 316.5 C147.89562253 315.74471837 147.89562253 315.74471837 145.5 317.125 C144.2625 317.558125 144.2625 317.558125 143 318 C140.9375 316.8125 140.9375 316.8125 139 315 C136.31479493 312.63792235 136.31479493 312.63792235 133 312 C130.59078295 314.40921705 129.46187844 316.94334509 128 320 C127.34 319.67 126.68 319.34 126 319 C125.79859524 315.37471432 126.14223235 313.13498292 128 310 C127.01 310 126.02 310 125 310 C122 310 122 310 120 309 C119.34 309.99 118.68 310.98 118 312 C117.34 311.67 116.68 311.34 116 311 C116.33 310.34 116.66 309.68 117 309 C114.37812506 310.04874998 113.20628639 310.64931313 111.75 313.125 C111.5025 313.74375 111.255 314.3625 111 315 C110.01 315 109.02 315 108 315 C108.99 313.02 109.98 311.04 111 309 C111.66 309 112.32 309 113 309 C110.75041666 306.41666771 110.75041666 306.41666771 108 304 C106.68 304 105.36 304 104 304 C102.97676564 305.31558703 101.98244845 306.65368175 101 308 C98.74532397 309.78453058 96.38983489 311.40241174 94 313 C93.67 312.01 93.34 311.02 93 310 C94.9375 307.3125 94.9375 307.3125 97 305 C96.38125 305.350625 95.7625 305.70125 95.125 306.0625 C94.073125 306.5265625 94.073125 306.5265625 93 307 C92.34 306.67 91.68 306.34 91 306 C90.34 306.66 89.68 307.32 89 308 C88.01 307.34 87.02 306.68 86 306 C84.515 307.485 84.515 307.485 83 309 C82.34 308.34 81.68 307.68 81 307 C81.33333333 305.33333333 81.66666667 303.66666667 82 302 C81.34 301.34 80.68 300.68 80 300 C76.39426104 300 75.58663434 300.81707462 72.8125 303 C71.73935547 303.8353125 71.73935547 303.8353125 70.64453125 304.6875 C70.10183594 305.120625 69.55914063 305.55375 69 306 C68.01 305.01 67.02 304.02 66 303 C65.34 303.66 64.68 304.32 64 305 C62.35 303.35 60.7 301.7 59 300 C58.855625 300.598125 58.71125 301.19625 58.5625 301.8125 C58.1127561 303.56150404 57.57107659 305.28677023 57 307 C55.99197276 310.78010217 55.62485299 312.32473539 57.5625 315.8125 C59.58560674 320.2985193 58.40910412 323.43815213 57 328 C56.67 328 56.34 328 56 328 C55.95101562 327.33613281 55.90203125 326.67226563 55.8515625 325.98828125 C55.28874188 319.2887764 55.28874188 319.2887764 53 313 C52.54625 313.66 52.0925 314.32 51.625 315 C51.08875 315.66 50.5525 316.32 50 317 C49.34 317 48.68 317 48 317 C47.01 314.03 46.02 311.06 45 308 C45.99 307.34 46.98 306.68 48 306 C48.66 306.66 49.32 307.32 50 308 C50.99 308 51.98 308 53 308 C53.66 307.34 54.32 306.68 55 306 C54.01 306 53.02 306 52 306 C52 305.34 52 304.68 52 304 C53.32 303.67 54.64 303.34 56 303 C55.01 303 54.02 303 53 303 C52.34 303 51.68 303 51 303 C51 302.34 51 301.68 51 301 C50.34 300.67 49.68 300.34 49 300 C49.33 299.34 49.66 298.68 50 298 C49.443125 297.896875 48.88625 297.79375 48.3125 297.6875 C46 297 46 297 43.5625 295.3125 C41.07805097 293.67576604 41.07805097 293.67576604 38.5 294.6875 C37.675 295.120625 36.85 295.55375 36 296 C31.49534293 298.13971211 31.49534293 298.13971211 28.5625 297.3125 C26.04205905 296.71623806 26.04205905 296.71623806 24.45703125 298.07421875 C23.93496094 298.54472656 23.41289063 299.01523437 22.875 299.5 C21.92625 300.325 20.9775 301.15 20 302 C19.01 301.67 18.02 301.34 17 301 C17 300.01 17 299.02 17 298 C14.6984589 297.22197813 14.6984589 297.22197813 12 297 C9.69495956 298.33153266 9.69495956 298.33153266 8 300 C6 297 6 297 6 296 C1.08417923 294.48046291 1.08417923 294.48046291 -4 294 C-4.99 294 -5.98 294 -7 294 C-8.66821323 294.32550502 -10.33499557 294.65846063 -12 295 C-12.66 295 -13.32 295 -14 295 C-14.33 295.66 -14.66 296.32 -15 297 C-17 296 -17 296 -17.8125 294.125 C-17.874375 293.42375 -17.93625 292.7225 -18 292 C-17.01 291.01 -16.02 290.02 -15 289 C-17.64 290.98 -20.28 292.96 -23 295 C-23.66 294.34 -24.32 293.68 -25 293 C-25 292.34 -25 291.68 -25 291 C-25.99 291.66 -26.98 292.32 -28 293 C-30.33333333 293 -32.66666667 293 -35 293 C-36.9892884 293.25260805 -38.97860294 293.50570214 -40.96484375 293.78125 C-44.55850558 294.16751691 -47.55073045 293.89013408 -51 293 C-51.99 293 -52.98 293 -54 293 C-54.66 293.66 -55.32 294.32 -56 295 C-56.66 295.66 -57.32 296.32 -58 297 C-59.32 296.34 -60.64 295.68 -62 295 C-61.505 295.78375 -61.01 296.5675 -60.5 297.375 C-59 300 -59 300 -59 302 C-59.99 301.67 -60.98 301.34 -62 301 C-62 300.34 -62 299.68 -62 299 C-64.63684747 296.60179695 -64.63684747 296.60179695 -68 296 C-68.66 296.66 -69.32 297.32 -70 298 C-71.98387708 299.03161608 -73.98276656 300.03523618 -76 301 C-75.67 301.99 -75.34 302.98 -75 304 C-75.33 304.99 -75.66 305.98 -76 307 C-75.60602665 309.63804589 -75.60602665 309.63804589 -75 312 C-75.5775 311.690625 -76.155 311.38125 -76.75 311.0625 C-78.84904107 310.07128616 -80.75074138 309.52451199 -83 309 C-82.855625 308.16082031 -82.71125 307.32164062 -82.5625 306.45703125 C-79.56949369 287.06484451 -81.09011223 269.13857839 -85 250 C-85.27622938 248.6408259 -85.5522609 247.28161157 -85.828125 245.92236328 C-86.04585823 244.84996651 -86.04585823 244.84996651 -86.26799011 243.75590515 C-87.03374273 239.98328843 -87.79867349 236.21050717 -88.5625 232.4375 C-88.71600922 231.68099152 -88.86951843 230.92448303 -89.02767944 230.14505005 C-93.38635073 208.60772986 -96.61462508 187.04269044 -96 165 C-95.97164063 163.84886719 -95.94328125 162.69773437 -95.9140625 161.51171875 C-95.11070446 142.78582531 -91.37946217 124.60393255 -85 107 C-84.64035156 106.00347412 -84.64035156 106.00347412 -84.2734375 104.98681641 C-73.96654021 76.91892646 -57.72850897 50.55215833 -37 29 C-36.52626953 28.50048828 -36.05253906 28.00097656 -35.56445312 27.48632812 C-9.3979967 0 -9.3979967 0 0 0 Z M-29 293 C-29 293.99 -29 294.98 -29 296 C-28.938125 297.5159375 -28.938125 297.5159375 -28.875 299.0625 C-29 302 -29 302 -31 304 C-31.83759564 300.64961743 -32.24052591 298.2704774 -31 295 C-30.34 294.34 -29.68 293.68 -29 293 Z M39 295 C39.66 295.66 40.32 296.32 41 297 C40.34 297 39.68 297 39 297 C39 296.34 39 295.68 39 295 Z M78 300 C78.66 300.66 79.32 301.32 80 302 C79.34 302 78.68 302 78 302 C78 301.34 78 300.68 78 300 Z M106 305 C106.66 305.66 107.32 306.32 108 307 C107.34 307 106.68 307 106 307 C106 306.34 106 305.68 106 305 Z M103 308 C103.66 308 104.32 308 105 308 C104.67 308.66 104.34 309.32 104 310 C103.67 309.34 103.34 308.68 103 308 Z M120 311 C120.66 311.66 121.32 312.32 122 313 C121.01 313.495 121.01 313.495 120 314 C120 313.01 120 312.02 120 311 Z M132 315 C134.25 315.0625 134.25 315.0625 137 316 C138.67849824 318.2308475 139.75999263 320.47405906 141 323 C140.34 323.66 139.68 324.32 139 325 C136.375 324.625 136.375 324.625 134 324 C132 317.25 132 317.25 132 315 Z M160 317 C160 320 160 320 160 320 Z " fill="#3CA9E7" transform="translate(541,171)"/>
<path d="M0 0 C0.33 0 0.66 0 1 0 C1 9.24 1 18.48 1 28 C1.66 28.33 2.32 28.66 3 29 C4.7680163 31.91202685 5.38755569 34.67530232 6 38 C6.33 38.66 6.66 39.32 7 40 C7.66 39.34 8.32 38.68 9 38 C9 41 9 41 8 44 C8.928125 43.505 8.928125 43.505 9.875 43 C12 42 12 42 14 42 C15.485 41.505 15.485 41.505 17 41 C19.475 43.475 19.475 43.475 22 46 C22 45.01 22 44.02 22 43 C23.32 43 24.64 43 26 43 C26.66 44.32 27.32 45.64 28 47 C28.66 47 29.32 47 30 47 C30.99 47 31.98 47 33 47 C33.33 47.33 33.66 47.66 34 48 C34.66 47.67 35.32 47.34 36 47 C35.505 45.02 35.505 45.02 35 43 C35.66 43 36.32 43 37 43 C41 47.35294118 41 47.35294118 41 51 C43.91517292 49.92598892 45.77810176 49.22189824 48 47 C48.33 47.99 48.66 48.98 49 50 C49.9075 49.525625 50.815 49.05125 51.75 48.5625 C55.46382701 46.77700624 57.91033446 46 62 46 C62.61875 46.37125 63.2375 46.7425 63.875 47.125 C66.07976092 48.29926298 66.07976092 48.29926298 68.75 47.125 C69.4925 46.75375 70.235 46.3825 71 46 C71 47.65 71 49.3 71 51 C75.52898017 48.56928629 75.52898017 48.56928629 77.875 44.25 C77.91625 43.5075 77.9575 42.765 78 42 C81.875 42.875 81.875 42.875 83 44 C84.32594105 44.36162029 85.65938457 44.69728039 87 45 C85.68 47.31 84.36 49.62 83 52 C86.0745356 51.2236068 86.0745356 51.2236068 88 49 C90 49 92 49 94 49 C94.99 48.01 94.99 48.01 96 47 C96 46.34 96 45.68 96 45 C97.32 44.67 98.64 44.34 100 44 C100 43.01 100 42.02 100 41 C103 42 103 42 104 43 C105.65948148 44.01187895 107.32580562 45.0126546 109 46 C109.99 45.01 109.99 45.01 111 44 C111.495 46.475 111.495 46.475 112 49 C113.65 48.01 115.3 47.02 117 46 C117.33 46.99 117.66 47.98 118 49 C118.7425 48.34 119.485 47.68 120.25 47 C123 45 123 45 127 45 C127.99 44.01 127.99 44.01 129 43 C130.32 43.66 131.64 44.32 133 45 C133 45.99 133 46.98 133 48 C133.66 48.33 134.32 48.66 135 49 C135.5775 48.54625 136.155 48.0925 136.75 47.625 C138.7800333 46.15886484 140.73539843 45.05142216 143 44 C143.433125 44.495 143.86625 44.99 144.3125 45.5 C145.99740483 47.33218192 145.99740483 47.33218192 149 47 C149.99 47 150.98 47 152 47 C152.66 47.66 153.32 48.32 154 49 C153.67 49.66 153.34 50.32 153 51 C156.87797662 51.43386092 156.87797662 51.43386092 158.75 49.5 C159.36875 48.7575 159.36875 48.7575 160 48 C160.33 48.99 160.66 49.98 161 51 C164.78225542 50.4888844 166.52336983 49.88940186 169 47 C171.5 44.3125 171.5 44.3125 174 42 C174.99 42 175.98 42 177 42 C177 42.99 177 43.98 177 45 C176.01 45.33 175.02 45.66 174 46 C174.99 46.66 175.98 47.32 177 48 C177.66 47.01 178.32 46.02 179 45 C181.7839183 46.39195915 181.97898997 48.15575779 183 51 C184.32 49.68 185.64 48.36 187 47 C186.01 44.525 186.01 44.525 185 42 C185.598125 42.165 186.19625 42.33 186.8125 42.5 C189.11344336 43.1114124 189.11344336 43.1114124 192 43 C195 43 195 43 198 44 C198.3403125 43.1028125 198.3403125 43.1028125 198.6875 42.1875 C200.33811133 39.43648112 202.1972081 38.47515363 205 37 C199.92531633 48.13400746 189.29410338 57.86841367 181.30859375 67.12109375 C156.34692962 96.14744899 132.7847909 127.74917926 135 168 C137.56017594 201.10199311 155.84898742 228.1611359 179 251 C151.20977395 243.37456254 124.83404476 228.96541546 101 213 C100.36271973 212.57509277 99.72543945 212.15018555 99.06884766 211.71240234 C78.04913178 197.56656528 58.85845048 179.52579205 44 159 C42.85337891 157.43572266 42.85337891 157.43572266 41.68359375 155.83984375 C31.4304418 141.44976789 23.1573587 126.13347821 16 110 C15.71141113 109.35353516 15.42282227 108.70707031 15.12548828 108.04101562 C7.11300357 89.84005457 2.83384487 70.61228002 0 51 C-0.15903809 49.97531616 -0.15903809 49.97531616 -0.32128906 48.92993164 C-1.29782496 41.73790006 -1.15054052 34.4772828 -1.13037109 27.23413086 C-1.12500403 24.93922342 -1.13034607 22.64451093 -1.13671875 20.34960938 C-1.13605799 18.86718708 -1.13477686 17.3847649 -1.1328125 15.90234375 C-1.13483673 15.22815903 -1.13686096 14.5539743 -1.13894653 13.85935974 C-1.11616757 9.15455696 -0.65203704 4.64940615 0 0 Z M16 38 C16.99 38.495 16.99 38.495 18 39 C17.67 39.66 17.34 40.32 17 41 C16.67 40.01 16.34 39.02 16 38 Z M27 41 C28.98 41.99 28.98 41.99 31 43 C30.67 43.66 30.34 44.32 30 45 C29.34 45 28.68 45 28 45 C27.67 43.68 27.34 42.36 27 41 Z " fill="#3C85DA" transform="translate(297,579)"/>
<path d="M0 0 C-0.2165625 1.2375 -0.433125 2.475 -0.65625 3.75 C-7.34735893 44.36920074 0.51105824 82.9632977 20 119 C20.31404785 119.58797363 20.6280957 120.17594727 20.95166016 120.78173828 C33.93159727 144.91998488 51.51829985 166.54294734 69.70703125 186.91162109 C71.3961721 188.80904483 73.07348712 190.71642033 74.75 192.625 C75.26401367 193.193396 75.77802734 193.76179199 76.30761719 194.34741211 C79.09255044 197.52740177 80.48636333 199.80157851 81 204 C81.98020375 205.0194119 82.97803008 206.02246356 84 207 C84 207.99 84 208.98 84 210 C84.66 210 85.32 210 86 210 C86 210.66 86 211.32 86 212 C86.66 212 87.32 212 88 212 C86.52307692 216.67692308 86.52307692 216.67692308 83.875 218.3125 C83.25625 218.539375 82.6375 218.76625 82 219 C82.33 217.35 82.66 215.7 83 214 C80.53721199 214 79.14775881 214.85452863 77 216 C76.71125 215.030625 76.4225 214.06125 76.125 213.0625 C75.35785318 209.89335797 75.35785318 209.89335797 73 209 C72.67 209.66 72.34 210.32 72 211 C69.3493418 211 67.52697187 210.63174297 65 210 C61.87501834 209.6626154 61.87501834 209.6626154 59.8125 212 C59.214375 212.66 58.61625 213.32 58 214 C57.01 213.67 56.02 213.34 55 213 C54.67 213.66 54.34 214.32 54 215 C53.34 215.33 52.68 215.66 52 216 C50.875 212.25 50.875 212.25 52 210 C51.34 210 50.68 210 50 210 C50 209.34 50 208.68 50 208 C51.32 208 52.64 208 54 208 C54 207.01 54 206.02 54 205 C54 204.34 54 203.68 54 203 C52.68 203.99 51.36 204.98 50 206 C49.67 204.68 49.34 203.36 49 202 C48.67 202.99 48.34 203.98 48 205 C47.01 205 46.02 205 45 205 C44.34 205.66 43.68 206.32 43 207 C40.875 207.625 40.875 207.625 39 208 C39 207.01 39 206.02 39 205 C38.34 205 37.68 205 37 205 C36.67 205.66 36.34 206.32 36 207 C35.34 206.67 34.68 206.34 34 206 C33.67 206.66 33.34 207.32 33 208 C31.515 207.01 31.515 207.01 30 206 C29.67 206.66 29.34 207.32 29 208 C27.35353315 209.68662458 25.68816933 211.35511706 24 213 C23.4225 212.319375 22.845 211.63875 22.25 210.9375 C21.5075 210.298125 20.765 209.65875 20 209 C17.90708843 209.08571661 17.90708843 209.08571661 16 210 C15.01 210.33 14.02 210.66 13 211 C12.67 210.34 12.34 209.68 12 209 C10.35 209.66 8.7 210.32 7 211 C6.34 210.34 5.68 209.68 5 209 C4.01 209 3.02 209 2 209 C1.67 208.34 1.34 207.68 1 207 C0.34 207 -0.32 207 -1 207 C-1.66 207.66 -2.32 208.32 -3 209 C-5.125 209.625 -5.125 209.625 -7 210 C-7.66 208.02 -8.32 206.04 -9 204 C-9.33 204.99 -9.66 205.98 -10 207 C-10.66 207 -11.32 207 -12 207 C-12.33 207.99 -12.66 208.98 -13 210 C-15 209 -15 209 -16 208 C-16.99 208.99 -17.98 209.98 -19 211 C-19.66 210.34 -20.32 209.68 -21 209 C-20.34 207.68 -19.68 206.36 -19 205 C-20.38663397 206.38663397 -21.42859441 207.96340237 -22.5625 209.5625 C-23.24505859 210.52349609 -23.24505859 210.52349609 -23.94140625 211.50390625 C-24.46541016 212.24447266 -24.46541016 212.24447266 -25 213 C-26.32 212.01 -27.64 211.02 -29 210 C-28.67 207.69 -28.34 205.38 -28 203 C-29.3921875 204.2065625 -29.3921875 204.2065625 -30.8125 205.4375 C-32.99279031 207.32708494 -34.17337435 208.05779145 -37 209 C-37.33 209.66 -37.66 210.32 -38 211 C-38.99 211.33 -39.98 211.66 -41 212 C-41.33 212.66 -41.66 213.32 -42 214 C-42.99 214.66 -43.98 215.32 -45 216 C-45 212.06368636 -43.57142871 210.87394974 -41 208 C-40.34 207.67 -39.68 207.34 -39 207 C-39.57944932 205.00136244 -39.57944932 205.00136244 -41 203 C-44.04199472 201.70768358 -44.04199472 201.70768358 -47 201 C-47 201.66 -47 202.32 -47 203 C-47.66 203 -48.32 203 -49 203 C-49.33 203.66 -49.66 204.32 -50 205 C-50.66 204.67 -51.32 204.34 -52 204 C-52 204.66 -52 205.32 -52 206 C-52.66 206 -53.32 206 -54 206 C-54.33 206.66 -54.66 207.32 -55 208 C-55 207.01 -55 206.02 -55 205 C-55.556875 204.7525 -56.11375 204.505 -56.6875 204.25 C-59 203 -59 203 -61.5625 200.875 C-63.88377389 198.69514462 -63.88377389 198.69514462 -67 199 C-67.33 198.67 -67.66 198.34 -68 198 C-68.66 198.33 -69.32 198.66 -70 199 C-69.67 200.65 -69.34 202.3 -69 204 C-70.485 204.99 -70.485 204.99 -72 206 C-73.01868662 206.98095748 -74.02351983 207.97702078 -75 209 C-76.95216435 207.04783565 -77.84826645 205.46800047 -79 203 C-79.495 203.99 -79.495 203.99 -80 205 C-80.66 204.34 -81.32 203.68 -82 203 C-82.40992188 203.5053125 -82.81984375 204.010625 -83.2421875 204.53125 C-84.05042969 205.50578125 -84.05042969 205.50578125 -84.875 206.5 C-85.67550781 207.47453125 -85.67550781 207.47453125 -86.4921875 208.46875 C-86.98976563 208.9740625 -87.48734375 209.479375 -88 210 C-88.66 210 -89.32 210 -90 210 C-91.37292913 201.6030674 -92.31274919 193.51372785 -92 185 C-92.66 185 -93.32 185 -94 185 C-94.02514056 180.43253967 -94.04306304 175.86512156 -94.05493164 171.29760742 C-94.05989112 169.75105079 -94.06666077 168.20449866 -94.07543945 166.65795898 C-94.36328005 114.55881061 -72.85721657 66.73247512 -37 29 C-36.52191895 28.4946875 -36.04383789 27.989375 -35.55126953 27.46875 C-9.39487868 0 -9.39487868 0 0 0 Z M-46 202 C-45.34 202 -44.68 202 -44 202 C-44.33 202.66 -44.66 203.32 -45 204 C-45.33 203.34 -45.66 202.68 -46 202 Z M-42 204 C-41.34 204 -40.68 204 -40 204 C-40.33 205.32 -40.66 206.64 -41 208 C-41.66 208 -42.32 208 -43 208 C-43.33 208.66 -43.66 209.32 -44 210 C-44.33 209.34 -44.66 208.68 -45 208 C-43.625 206 -43.625 206 -42 204 Z M5 211 C5.99 211.33 6.98 211.66 8 212 C7.34 212.66 6.68 213.32 6 214 C5.67 213.01 5.34 212.02 5 211 Z M3 213 C3.66 213 4.32 213 5 213 C4.67 213.66 4.34 214.32 4 215 C3.67 214.34 3.34 213.68 3 213 Z " fill="#3BBEEC" transform="translate(541,171)"/>
<path d="M0 0 C0.33 0 0.66 0 1 0 C2.93251321 10.91919744 3.36244861 21.50442474 3.3125 32.5625 C3.31067719 33.40038055 3.30885437 34.23826111 3.30697632 35.10153198 C3.25994989 47.95292008 2.67861962 60.39350142 0 73 C-0.25740967 74.27037109 -0.25740967 74.27037109 -0.52001953 75.56640625 C-4.36426046 94.22763659 -10.43013052 111.99061726 -19 129 C-19.35932617 129.73041504 -19.71865234 130.46083008 -20.08886719 131.21337891 C-27.92657572 147.09784578 -37.53060326 161.48843324 -49 175 C-49.61230469 175.72316406 -50.22460938 176.44632813 -50.85546875 177.19140625 C-62.18577003 190.14345278 -74.39252527 202.55964492 -88.29345703 212.7421875 C-90.04639144 214.03419295 -91.77189566 215.35744528 -93.49609375 216.6875 C-111.59212099 230.49788472 -131.53413528 240.94111108 -152.3125 250.0625 C-153.22700928 250.46944092 -154.14151855 250.87638184 -155.08374023 251.2956543 C-155.93911377 251.66343994 -156.7944873 252.03122559 -157.67578125 252.41015625 C-158.43802002 252.74152588 -159.20025879 253.07289551 -159.9855957 253.41430664 C-162 254 -162 254 -165 253 C-164.12601563 252.32517578 -164.12601563 252.32517578 -163.234375 251.63671875 C-139.09990039 232.70102247 -116.01560652 207.79524956 -109 177 C-108.77828125 176.07832031 -108.5565625 175.15664063 -108.328125 174.20703125 C-102.58704303 146.0834878 -111.64145383 118.16068961 -127 94.625 C-130.7404788 89.207243 -134.79093241 84.05983657 -139 79 C-138.95359375 80.02738281 -138.9071875 81.05476562 -138.859375 82.11328125 C-138.51576944 92.9100736 -139.26500687 101.79774676 -146.375 110.5 C-151.02872856 115.29118045 -154.79522762 117.13942692 -161.5 117.375 C-167.59173995 117.18514903 -171.10453364 115.67506329 -175.6875 111.625 C-180.93167156 105.67215661 -183.05096468 99.52911413 -182.97753906 91.56323242 C-182.32312324 83.78035854 -180.51744312 76.46847744 -178.5 68.9375 C-176.36805192 60.95339723 -174.46614797 53.26938924 -174 45 C-173.95222412 44.22744873 -173.90444824 43.45489746 -173.85522461 42.65893555 C-173.40689965 33.72676286 -175.49264403 24.76492088 -177 16 C-177.3340414 14.00011814 -177.66771301 12.00017411 -178 10 C-175.525 11.98 -175.525 11.98 -173 14 C-173.185625 14.53625 -173.37125 15.0725 -173.5625 15.625 C-174.11419324 18.61990614 -173.60597444 21.03745829 -173 24 C-172.34 23.01 -171.68 22.02 -171 21 C-170.01 22.98 -169.02 24.96 -168 27 C-167.34 26.01 -166.68 25.02 -166 24 C-165.01 24 -164.02 24 -163 24 C-163 22.35 -163 20.7 -163 19 C-162.5875 19.598125 -162.175 20.19625 -161.75 20.8125 C-160.0092701 22.98841237 -158.28304179 24.42548842 -156 26 C-156 25.34 -156 24.68 -156 24 C-155.34 24 -154.68 24 -154 24 C-153.34 25.32 -152.68 26.64 -152 28 C-151.67 27.34 -151.34 26.68 -151 26 C-150.34 26 -149.68 26 -149 26 C-148.505 27.485 -148.505 27.485 -148 29 C-148.66 29.66 -149.32 30.32 -150 31 C-149.505 32.485 -149.505 32.485 -149 34 C-149.66 34.66 -150.32 35.32 -151 36 C-151.495 33.525 -151.495 33.525 -152 31 C-152.66 33.31 -153.32 35.62 -154 38 C-154.99 36.68 -155.98 35.36 -157 34 C-157 34.66 -157 35.32 -157 36 C-158.32 36 -159.64 36 -161 36 C-161 33.69 -161 31.38 -161 29 C-159.35 29.99 -157.7 30.98 -156 32 C-158.48952921 29.33264727 -160.63408134 27.44253657 -164 26 C-163.34 26.99 -162.68 27.98 -162 29 C-162.185625 30.155 -162.37125 31.31 -162.5625 32.5 C-163.40015526 35.92686414 -163.40015526 35.92686414 -161.5625 37.9375 C-160.7890625 38.4634375 -160.7890625 38.4634375 -160 39 C-158.515 38.505 -158.515 38.505 -157 38 C-156.34 39.32 -155.68 40.64 -155 42 C-155.99 42 -156.98 42 -158 42 C-157.34 43.32 -156.68 44.64 -156 46 C-155.67 45.01 -155.34 44.02 -155 43 C-154.34 42.34 -153.68 41.68 -153 41 C-152.5359375 42.6396875 -152.5359375 42.6396875 -152.0625 44.3125 C-151.41662103 46.55407994 -150.7376883 48.7869351 -150 51 C-150.99 51.495 -150.99 51.495 -152 52 C-152 51.01 -152 50.02 -152 49 C-154.475 49.495 -154.475 49.495 -157 50 C-157 51.32 -157 52.64 -157 54 C-156.34 54.66 -155.68 55.32 -155 56 C-154.34 55.34 -153.68 54.68 -153 54 C-152.34 53.855625 -151.68 53.71125 -151 53.5625 C-148.61359262 53.12541292 -148.61359262 53.12541292 -147 50 C-146.505 49.01 -146.505 49.01 -146 48 C-145.34 48.99 -144.68 49.98 -144 51 C-144.66 51.99 -145.32 52.98 -146 54 C-145.01 54 -144.02 54 -143 54 C-142.34 54 -141.68 54 -141 54 C-140.34 53.34 -139.68 52.68 -139 52 C-137.35008418 51.29289322 -135.68437744 50.62056011 -134 50 C-134 49.01 -134 48.02 -134 47 C-131.15426788 48.42286606 -129.23292092 50.76707908 -127 53 C-125.68 52.01 -124.36 51.02 -123 50 C-122.505 51.98 -122.505 51.98 -122 54 C-121.01 54 -120.02 54 -119 54 C-118.34 54 -117.68 54 -117 54 C-116.505 53.01 -116.505 53.01 -116 52 C-115.01 52.99 -114.02 53.98 -113 55 C-112.67 54.01 -112.34 53.02 -112 52 C-111.030625 51.87625 -110.06125 51.7525 -109.0625 51.625 C-108.051875 51.41875 -107.04125 51.2125 -106 51 C-105.505 50.01 -105.505 50.01 -105 49 C-104.34 49.33 -103.68 49.66 -103 50 C-103 50.99 -103 51.98 -103 53 C-102.01 52.67 -101.02 52.34 -100 52 C-99.505 51.01 -99.505 51.01 -99 50 C-98.01 51.98 -98.01 51.98 -97 54 C-94.03824877 53.38722388 -92.61941217 52.74627478 -90 51 C-88 54 -88 54 -88.375 56.1875 C-88.58125 56.785625 -88.7875 57.38375 -89 58 C-86.9254644 59.2236068 -86.9254644 59.2236068 -84 59 C-83.34 57.68 -82.68 56.36 -82 55 C-81.401875 55.20625 -80.80375 55.4125 -80.1875 55.625 C-77.71549154 56.30671915 -77.71549154 56.30671915 -75 54 C-74 56 -73 58 -72 60 C-71.01 59.67 -70.02 59.34 -69 59 C-68.67 56.36 -68.34 53.72 -68 51 C-65.33333333 52.33333333 -62.66666667 53.66666667 -60 55 C-60.99 53.02 -60.99 53.02 -62 51 C-58 51 -58 51 -56 52 C-56.33 53.32 -56.66 54.64 -57 56 C-55.68 56 -54.36 56 -53 56 C-52.34 56.33 -51.68 56.66 -51 57 C-50.34 56.67 -49.68 56.34 -49 56 C-48.01 56.33 -47.02 56.66 -46 57 C-46.33 57.66 -46.66 58.32 -47 59 C-47.66 59 -48.32 59 -49 59 C-49 59.66 -49 60.32 -49 61 C-49.66 61 -50.32 61 -51 61 C-50.34 61.66 -49.68 62.32 -49 63 C-47.00016466 62.20882096 -47.00016466 62.20882096 -45 61 C-44.67 60.01 -44.34 59.02 -44 58 C-41.7522025 60.05233685 -40.9977758 61.00667261 -40 64 C-40 63.34 -40 62.68 -40 62 C-36.58255431 58.82098075 -33.58846965 56.24012693 -29 55 C-28.01 55.33 -27.02 55.66 -26 56 C-26.66 57.32 -27.32 58.64 -28 60 C-27.071875 59.7525 -27.071875 59.7525 -26.125 59.5 C-24 59 -24 59 -22 59 C-22 58.34 -22 57.68 -22 57 C-21.34 57.33 -20.68 57.66 -20 58 C-16.20095434 57.62009543 -14.4605043 55.7998842 -12 53 C-11.67 52.34 -11.34 51.68 -11 51 C-11.99 50.67 -12.98 50.34 -14 50 C-14.33 47.69 -14.66 45.38 -15 43 C-16.32 42.67 -17.64 42.34 -19 42 C-18.67 40.68 -18.34 39.36 -18 38 C-16.68 37.67 -15.36 37.34 -14 37 C-13.34 37.99 -12.68 38.98 -12 40 C-11.34 39.01 -10.68 38.02 -10 37 C-10.33 36.01 -10.66 35.02 -11 34 C-11.66 33.67 -12.32 33.34 -13 33 C-13.99 33.99 -13.99 33.99 -15 35 C-18.61139896 31.21243523 -18.61139896 31.21243523 -20 29 C-19.8125 26.125 -19.8125 26.125 -19 24 C-18.01 24.99 -17.02 25.98 -16 27 C-16.33 25.68 -16.66 24.36 -17 23 C-12.74257863 23.47304682 -10.74294902 25.8863822 -8 29 C-7.67 29.99 -7.34 30.98 -7 32 C-6.01 29.525 -6.01 29.525 -5 27 C-3.7934375 27.99 -3.7934375 27.99 -2.5625 29 C-0.41038085 31.10254514 -0.41038085 31.10254514 1 31 C1.042721 32.66611905 1.04063832 34.33382885 1 36 C0.67 36.33 0.34 36.66 0 37 C0.33 37.99 0.66 38.98 1 40 C1 34.39 1 28.78 1 23 C0.67 23.99 0.34 24.98 0 26 C-0.66 26 -1.32 26 -2 26 C-2.99 21.545 -2.99 21.545 -4 17 C-2.68 17 -1.36 17 0 17 C-0.62759865 14.07120629 -1.58622659 11.63904371 -3 9 C-2.34 8.34 -1.68 7.68 -1 7 C-0.59952556 4.67724823 -0.2602896 2.34260643 0 0 Z M-159 56 C-158.34 56.66 -157.68 57.32 -157 58 C-157 57.34 -157 56.68 -157 56 C-157.66 56 -158.32 56 -159 56 Z M-56 57 C-55 59 -55 59 -55 59 Z M-77 58 C-77.33 59.32 -77.66 60.64 -78 62 C-77.01 62.495 -77.01 62.495 -76 63 C-76 62.34 -76 61.68 -76 61 C-75.34 60.67 -74.68 60.34 -74 60 C-74.99 59.34 -75.98 58.68 -77 58 Z M-17 18 C-16.01 18 -15.02 18 -14 18 C-14 18.66 -14 19.32 -14 20 C-13.34 20.33 -12.68 20.66 -12 21 C-12.66 21 -13.32 21 -14 21 C-14.33 21.66 -14.66 22.32 -15 23 C-15.66 21.35 -16.32 19.7 -17 18 Z M-41 38 C-38.4345406 40.5654594 -38.45953913 42.47686668 -38 46 C-40.55192629 44.72403685 -40.99500868 43.62843884 -42 41 C-41.67 40.01 -41.34 39.02 -41 38 Z M-45 44 C-42.525 44.99 -42.525 44.99 -40 46 C-40.66 46.66 -41.32 47.32 -42 48 C-42.45811675 49.97235333 -42.45811675 49.97235333 -42.625 52.125 C-42.74875 53.40375 -42.8725 54.6825 -43 56 C-43.99 56 -44.98 56 -46 56 C-45.67 55.34 -45.34 54.68 -45 54 C-44.93003986 52.29297265 -44.91559846 50.58331997 -44.9375 48.875 C-44.94652344 47.96492187 -44.95554687 47.05484375 -44.96484375 46.1171875 C-44.97644531 45.41851563 -44.98804688 44.71984375 -45 44 Z M-144 48 C-143.34 48.66 -142.68 49.32 -142 50 C-142.66 50 -143.32 50 -144 50 C-144 49.34 -144 48.68 -144 48 Z M-74 53 C-73.34 53.66 -72.68 54.32 -72 55 C-72.99 55.495 -72.99 55.495 -74 56 C-74 55.01 -74 54.02 -74 53 Z " fill="#3C85DA" transform="translate(746,576)"/>
<path d="M0 0 C1.29084732 3.87254195 0.23829136 6.48250408 -0.875 10.25 C-5.91670431 27.60041691 -5.23308888 44.76334637 2.125 61.3125 C6.92384193 70.03900948 13.66301562 77.36895052 23 81 C23 81.66 23 82.32 23 83 C25.31 83.66 27.62 84.32 30 85 C30 86.65 30 88.3 30 90 C30.66 90 31.32 90 32 90 C32 88.35 32 86.7 32 85 C34.41626418 84.80465526 36.83265229 84.61846596 39.25 84.4375 C40.27287109 84.35338867 40.27287109 84.35338867 41.31640625 84.26757812 C47.94423416 83.7849693 47.94423416 83.7849693 51 85 C51.66 85.66 52.32 86.32 53 87 C53.66 86.34 54.32 85.68 55 85 C55.99 85.33 56.98 85.66 58 86 C56.70700306 88.88437779 55.34058637 90.87219421 53 93 C53 92.34 53 91.68 53 91 C52.34 91 51.68 91 51 91 C51.66 92.32 52.32 93.64 53 95 C51.625 96.5 51.625 96.5 50 98 C49.34 98 48.68 98 48 98 C47.67 98.66 47.34 99.32 47 100 C46.01 100 45.02 100 44 100 C41.9866347 101.31306433 39.98768394 102.64837492 38 104 C36.35380887 104.71573527 34.69271945 105.4025696 33 106 C32.34 105.01 31.68 104.02 31 103 C30.67 103.66 30.34 104.32 30 105 C28.125 104.75 28.125 104.75 26 104 C24.75 101.9375 24.75 101.9375 24 100 C21.1490712 100.7018576 21.1490712 100.7018576 20 102 C19.319375 102.268125 18.63875 102.53625 17.9375 102.8125 C14.79656825 104.08223837 11.91719723 105.63848155 8.96484375 107.29296875 C6.52864361 108.16961333 5.41401028 107.84028929 3 107 C1.515 106.505 1.515 106.505 0 106 C-1.1875 103.9375 -1.1875 103.9375 -2 102 C-3.485 102.495 -3.485 102.495 -5 103 C-5.66 103 -6.32 103 -7 103 C-7.9590625 103.495 -7.9590625 103.495 -8.9375 104 C-11 105 -11 105 -14 105 C-16.18777466 106.9375006 -16.18777466 106.9375006 -18 109 C-18 105.88742431 -17.82638376 103.89234315 -17 101 C-18.98491642 101.26676204 -18.98491642 101.26676204 -21 102 C-21.495 103.485 -21.495 103.485 -22 105 C-22.66 105 -23.32 105 -24 105 C-24.33 105.66 -24.66 106.32 -25 107 C-25.66 107 -26.32 107 -27 107 C-27 107.66 -27 108.32 -27 109 C-27.66 109 -28.32 109 -29 109 C-29.33 109.66 -29.66 110.32 -30 111 C-30.99 111 -31.98 111 -33 111 C-31.25 107.125 -31.25 107.125 -29 106 C-27.88214887 103.88214887 -27.88214887 103.88214887 -27 101 C-27.66 101 -28.32 101 -29 101 C-29.66 102.65 -30.32 104.3 -31 106 C-31.8353125 105.690625 -31.8353125 105.690625 -32.6875 105.375 C-35.659538 104.89304789 -37.31979941 105.73434972 -40 107 C-40.99 106.01 -40.99 106.01 -42 105 C-42 104.01 -42 103.02 -42 102 C-42.86625 102.2165625 -42.86625 102.2165625 -43.75 102.4375 C-44.4925 102.623125 -45.235 102.80875 -46 103 C-47.051875 103.2784375 -47.051875 103.2784375 -48.125 103.5625 C-50 104 -50 104 -52 104 C-52.66 105.32 -53.32 106.64 -54 108 C-54.99 108 -55.98 108 -57 108 C-57 107.34 -57 106.68 -57 106 C-56.34 106 -55.68 106 -55 106 C-55 104.68 -55 103.36 -55 102 C-56.36125 103.2684375 -56.36125 103.2684375 -57.75 104.5625 C-60.69150437 107.02644248 -60.69150437 107.02644248 -63.1875 106.8125 C-63.785625 106.544375 -64.38375 106.27625 -65 106 C-65.99 106 -66.98 106 -68 106 C-68.99 105.67 -69.98 105.34 -71 105 C-71.99 106.32 -72.98 107.64 -74 109 C-73.55893112 106.42709818 -73.04529499 104.11172763 -72.0625 101.6875 C-70.88022365 98.91686614 -70.88022365 98.91686614 -70.26171875 95.5 C-68.91209899 90.03642675 -66.36899849 85.26510948 -63.75 80.3125 C-63.22422363 79.31299316 -62.69844727 78.31348633 -62.15673828 77.28369141 C-50.21776107 55.04826568 -34.66963294 32.68302635 -16.2421875 15.26953125 C-14.87174819 13.9983979 -14.87174819 13.9983979 -14 12 C-13.34 12 -12.68 12 -12 12 C-12 11.34 -12 10.68 -12 10 C-10.23947136 8.41929472 -8.41580202 6.90833714 -6.5625 5.4375 C-5.55316406 4.63183594 -4.54382813 3.82617188 -3.50390625 2.99609375 C-2.67761719 2.33738281 -1.85132813 1.67867188 -1 1 C-0.67 0.67 -0.34 0.34 0 0 Z M26 96 C26 96.99 26 97.98 26 99 C26.66 98.34 27.32 97.68 28 97 C27.34 96.67 26.68 96.34 26 96 Z M-2 98 C-2 101 -2 101 -2 101 Z M-42 100 C-41 102 -41 102 -41 102 Z " fill="#3DA3E5" transform="translate(385,420)"/>
<path d="M0 0 C1.65 1.32 3.3 2.64 5 4 C4.814375 4.53625 4.62875 5.0725 4.4375 5.625 C3.88580676 8.61990614 4.39402556 11.03745829 5 14 C5.66 13.01 6.32 12.02 7 11 C7.99 12.98 8.98 14.96 10 17 C10.66 16.01 11.32 15.02 12 14 C12.99 14 13.98 14 15 14 C15 12.35 15 10.7 15 9 C15.4125 9.598125 15.825 10.19625 16.25 10.8125 C17.9907299 12.98841237 19.71695821 14.42548842 22 16 C22 15.34 22 14.68 22 14 C22.66 14 23.32 14 24 14 C24.66 15.32 25.32 16.64 26 18 C26.33 17.34 26.66 16.68 27 16 C27.66 16 28.32 16 29 16 C29.33 16.99 29.66 17.98 30 19 C29.34 19.66 28.68 20.32 28 21 C28.33 21.99 28.66 22.98 29 24 C28.34 24.66 27.68 25.32 27 26 C26.505 23.525 26.505 23.525 26 21 C25.34 23.31 24.68 25.62 24 28 C23.01 26.68 22.02 25.36 21 24 C21 24.66 21 25.32 21 26 C19.68 26 18.36 26 17 26 C17 23.69 17 21.38 17 19 C18.65 19.99 20.3 20.98 22 22 C19.51047079 19.33264727 17.36591866 17.44253657 14 16 C14.66 16.99 15.32 17.98 16 19 C15.625 22.1875 15.625 22.1875 15 25 C13 24 13 24 12 22 C11.01 22 10.02 22 9 22 C8.71125 21.360625 8.4225 20.72125 8.125 20.0625 C7.17176549 17.84793921 7.17176549 17.84793921 5 17 C5 18.98 5 20.96 5 23 C4.67 23 4.34 23 4 23 C3.52047335 20.29172996 3.04136769 17.58338656 2.5625 14.875 C2.42779297 14.11445312 2.29308594 13.35390625 2.15429688 12.5703125 C1.41440873 8.38362839 0.69026923 4.19522853 0 0 Z " fill="#3D89DD" transform="translate(568,586)"/>
<path d="M0 0 C0.495 0.99 0.495 0.99 1 2 C1.99 2.33 2.98 2.66 4 3 C3.67 3.99 3.34 4.98 3 6 C3.66 6.33 4.32 6.66 5 7 C4.34 7 3.68 7 3 7 C3.495 8.485 3.495 8.485 4 10 C0 10 0 10 -3 8 C-3.825 8.94875 -4.65 9.8975 -5.5 10.875 C-5.9640625 11.40867187 -6.428125 11.94234375 -6.90625 12.4921875 C-8.19572458 13.95936421 -8.19572458 13.95936421 -8 16 C-7.34 16.33 -6.68 16.66 -6 17 C-11.625 21.875 -11.625 21.875 -15 23 C-15.66 23.66 -16.32 24.32 -17 25 C-19 23 -19 23 -20 21 C-25.61 21 -31.22 21 -37 21 C-37 22.65 -37 24.3 -37 26 C-37.66 26 -38.32 26 -39 26 C-39.33 24.35 -39.66 22.7 -40 21 C-41.98 20.34 -43.96 19.68 -46 19 C-42.72340533 17.90780178 -42.15644621 18.14440652 -39 19 C-27.27267517 19.97415478 -17.45056338 17.02274624 -8 10 C-4.85819755 6.9425848 -2.42636593 3.6395489 0 0 Z " fill="#3C9BDE" transform="translate(454,484)"/>
<path d="M0 0 C0.33 0 0.66 0 1 0 C0.67 13.86 0.34 27.72 0 42 C0.66 42 1.32 42 2 42 C2.43199411 46.55278894 2.85905562 51.10600509 3.28173828 55.65966797 C3.42592189 57.20569047 3.57140527 58.75159238 3.71826172 60.29736328 C3.9302587 62.53126343 4.13743147 64.76556908 4.34375 67 C4.44218201 68.02081665 4.44218201 68.02081665 4.54260254 69.06225586 C4.96760976 73.73305957 5.05488851 78.3161802 5 83 C4.67 83 4.34 83 4 83 C1.70254306 70.62817765 -0.25813761 58.30116811 -1.25 45.75 C-1.32976074 44.75299072 -1.40952148 43.75598145 -1.49169922 42.72875977 C-2.19240349 33.01194966 -2.19299144 23.34426811 -1.5625 13.625 C-1.48128906 12.31789063 -1.40007812 11.01078125 -1.31640625 9.6640625 C-1.03407883 6.39464129 -0.59416251 3.22545363 0 0 Z " fill="#3893CC" transform="translate(447,314)"/>
<path d="M0 0 C0.99 0 1.98 0 3 0 C2.08568288 6.40021986 -0.07174155 11.63831025 -2.9375 17.375 C-3.28554688 18.07689453 -3.63359375 18.77878906 -3.9921875 19.50195312 C-5.68349053 22.80478073 -7.29036535 25.47536435 -10 28 C-11.32 27.34 -12.64 26.68 -14 26 C-13.505 24.515 -13.505 24.515 -13 23 C-10.9375 22.3125 -10.9375 22.3125 -9 22 C-9 20.68 -9 19.36 -9 18 C-9.66 18 -10.32 18 -11 18 C-10.6875 15.125 -10.6875 15.125 -10 12 C-9.01 11.34 -8.02 10.68 -7 10 C-6.34 9.01 -5.68 8.02 -5 7 C-4.13375 6.154375 -3.2675 5.30875 -2.375 4.4375 C0.23262158 2.3284632 0.23262158 2.3284632 0 0 Z " fill="#3B8CD6" transform="translate(522,574)"/>
<path d="M0 0 C0.33 0 0.66 0 1 0 C1 5.94 1 11.88 1 18 C1.33 13.71 1.66 9.42 2 5 C2.66 5 3.32 5 4 5 C4 7.31 4 9.62 4 12 C5.32 12.33 6.64 12.66 8 13 C7.67 13.639375 7.34 14.27875 7 14.9375 C5.92728775 16.76794567 5.92728775 16.76794567 6 18 C6.33 18.66 6.66 19.32 7 20 C4.78986455 22.21013545 2.50031 24.1247675 0 26 C-0.66 26 -1.32 26 -2 26 C-1.98839844 26.61488281 -1.97679687 27.22976563 -1.96484375 27.86328125 C-1.95582031 28.67152344 -1.94679688 29.47976563 -1.9375 30.3125 C-1.92589844 31.11300781 -1.91429687 31.91351562 -1.90234375 32.73828125 C-2 35 -2 35 -3 38 C-3.66 38 -4.32 38 -5 38 C-5.33 39.98 -5.66 41.96 -6 44 C-6.98646805 40.91237658 -6.98148724 39.03531342 -6.07421875 35.9375 C-5.85531982 35.14956055 -5.6364209 34.36162109 -5.41088867 33.54980469 C-5.17217041 32.70836914 -4.93345215 31.86693359 -4.6875 31 C-1.92141786 20.72733996 -0.75477362 10.58936127 0 0 Z " fill="#3A81CC" transform="translate(573,611)"/>
<path d="M0 0 C0.33 0 0.66 0 1 0 C1 11.88 1 23.76 1 36 C1.33 36 1.66 36 2 36 C2 38.64 2 41.28 2 44 C4.8424854 45.57273568 4.8424854 45.57273568 8 46 C8.99 46 9.98 46 11 46 C11 49 11 49 9.125 51.1875 C7 53 7 53 5 53 C4.67 53.66 4.34 54.32 4 55 C3 54 3 54 2.9375 50.9375 C2.958125 49.968125 2.97875 48.99875 3 48 C2.34 48 1.68 48 1 48 C1 46.02 1 44.04 1 42 C0.34 42 -0.32 42 -1 42 C-1.02488717 37.30436582 -1.04294796 32.60877081 -1.05493164 27.91308594 C-1.05993231 26.31867808 -1.06673501 24.72427475 -1.07543945 23.12988281 C-1.0876933 20.82616046 -1.0932711 18.52249922 -1.09765625 16.21875 C-1.10281754 15.51633179 -1.10797882 14.81391357 -1.11329651 14.09020996 C-1.11382708 9.31279059 -0.67025518 4.73121306 0 0 Z M4 42 C4.66 42 5.32 42 6 42 C6 42.66 6 43.32 6 44 C5.34 44 4.68 44 4 44 C4 43.34 4 42.68 4 42 Z " fill="#3880C7" transform="translate(297,579)"/>
<path d="M0 0 C0.33 0 0.66 0 1 0 C2.99441092 11.04683296 3.24371813 21.69085587 3.125 32.875 C3.1149383 34.54556748 3.10581815 36.21614091 3.09765625 37.88671875 C3.07592258 41.92462978 3.04157357 45.96224652 3 50 C2.67 50 2.34 50 2 50 C1.67 41.09 1.34 32.18 1 23 C0.67 23.99 0.34 24.98 0 26 C-0.66 26 -1.32 26 -2 26 C-2.66 23.03 -3.32 20.06 -4 17 C-2.68 17 -1.36 17 0 17 C-0.62759865 14.07120629 -1.58622659 11.63904371 -3 9 C-2.34 8.34 -1.68 7.68 -1 7 C-0.59952556 4.67724823 -0.2602896 2.34260643 0 0 Z " fill="#367BBC" transform="translate(746,576)"/>
<path d="M0 0 C1.65 1.32 3.3 2.64 5 4 C4.814375 4.53625 4.62875 5.0725 4.4375 5.625 C3.88580676 8.61990614 4.39402556 11.03745829 5 14 C5.66 13.01 6.32 12.02 7 11 C7.99 12.98 8.98 14.96 10 17 C10.66 16.01 11.32 15.02 12 14 C12.66 14 13.32 14 14 14 C16.03684712 18.07369424 16.0257259 20.58937864 15 25 C13 24 13 24 12 22 C11.01 22 10.02 22 9 22 C8.71125 21.360625 8.4225 20.72125 8.125 20.0625 C7.17176549 17.84793921 7.17176549 17.84793921 5 17 C5 18.98 5 20.96 5 23 C4.67 23 4.34 23 4 23 C3.52047335 20.29172996 3.04136769 17.58338656 2.5625 14.875 C2.42779297 14.11445312 2.29308594 13.35390625 2.15429688 12.5703125 C1.41440873 8.38362839 0.69026923 4.19522853 0 0 Z " fill="#3B85D4" transform="translate(568,586)"/>
<path d="M0 0 C1.30524926 3.91574778 0.37904489 5.69248081 -0.8125 9.625 C-3.23147463 17.98628365 -4.1957568 26.35438565 -5 35 C-5.33 35 -5.66 35 -6 35 C-6.16311941 26.28217363 -5.65655389 17.68761489 -5 9 C-5.99 8.34 -6.98 7.68 -8 7 C-5.36 4.69 -2.72 2.38 0 0 Z " fill="#3891CB" transform="translate(385,420)"/>
<path d="M0 0 C4.9621452 3.87289381 8.96219923 8.18280977 13 13 C13.51304687 13.60972656 14.02609375 14.21945312 14.5546875 14.84765625 C15.70895728 16.22691081 16.85545117 17.61266808 18 19 C17.01 19.33 16.02 19.66 15 20 C13.99403703 19.0479279 12.99538437 18.08812654 12 17.125 C11.443125 16.59132813 10.88625 16.05765625 10.3125 15.5078125 C9 14 9 14 9 12 C8.01 12 7.02 12 6 12 C6 11.34 6 10.68 6 10 C5.34 10 4.68 10 4 10 C2.94228261 8.36935236 1.94726954 6.69719127 1 5 C0.34 4.01 -0.32 3.02 -1 2 C-0.67 1.34 -0.34 0.68 0 0 Z " fill="#39A5D8" transform="translate(621,371)"/>
<path d="M0 0 C-1.34929464 3.83663072 -3.07751025 6.65172569 -5.625 9.8125 C-6.25664062 10.60269531 -6.88828125 11.39289062 -7.5390625 12.20703125 C-8.02117187 12.79871094 -8.50328125 13.39039063 -9 14 C-9.144375 13.401875 -9.28875 12.80375 -9.4375 12.1875 C-9.8872439 10.43849596 -10.42892341 8.71322977 -11 7 C-11.66 6.67 -12.32 6.34 -13 6 C-12.67 5.01 -12.34 4.02 -12 3 C-12 3.66 -12 4.32 -12 5 C-11.01 5 -10.02 5 -9 5 C-8.67 4.34 -8.34 3.68 -8 3 C-7.34 3 -6.68 3 -6 3 C-5.525625 2.505 -5.05125 2.01 -4.5625 1.5 C-3 0 -3 0 0 0 Z " fill="#3A87D0" transform="translate(512,602)"/>
<path d="M0 0 C0 4.06934071 -1.58133708 5.23867327 -4.1875 8.3125 C-5.00476563 9.28445313 -5.82203125 10.25640625 -6.6640625 11.2578125 C-7.43492187 12.16273438 -8.20578125 13.06765625 -9 14 C-10.02242466 15.22784331 -11.04367647 16.45666695 -12.0625 17.6875 C-12.701875 18.450625 -13.34125 19.21375 -14 20 C-14.6953125 18.2421875 -14.6953125 18.2421875 -15 16 C-13.7421875 14.0703125 -13.7421875 14.0703125 -11.875 12.125 C-11.22789062 11.4340625 -10.58078125 10.743125 -9.9140625 10.03125 C-9.28242188 9.3609375 -8.65078125 8.690625 -8 8 C-7.07387675 6.88277195 -6.15586262 5.75871764 -5.25 4.625 C-3 2 -3 2 0 0 Z " fill="#3884C7" transform="translate(501,616)"/>
<path d="M0 0 C0.33 0 0.66 0 1 0 C1 8.91 1 17.82 1 27 C0.67 27 0.34 27 0 27 C-0.33431101 25.02099824 -0.66742319 23.04179393 -1 21.0625 C-1.185625 19.96035156 -1.37125 18.85820313 -1.5625 17.72265625 C-2 15 -2 15 -2 14 C-2.66 13.01 -3.32 12.02 -4 11 C-4.625 8.8125 -4.625 8.8125 -5 7 C-4.01 6.67 -3.02 6.34 -2 6 C-0.77479736 2.99152582 -0.77479736 2.99152582 0 0 Z " fill="#3D9CE3" transform="translate(747,596)"/>
<path d="M0 0 C0.33 0.99 0.66 1.98 1 3 C1.66 3 2.32 3 3 3 C3.86759552 6.26742273 4.71673443 9.53936481 5.5625 12.8125 C5.80935547 13.74126953 6.05621094 14.67003906 6.31054688 15.62695312 C6.53935547 16.51962891 6.76816406 17.41230469 7.00390625 18.33203125 C7.21861572 19.15421143 7.4333252 19.9763916 7.65454102 20.82348633 C8 23 8 23 7 26 C7 25.34 7 24.68 7 24 C6.34 24 5.68 24 5 24 C4.15642037 20.940229 3.3269798 17.8767954 2.5 14.8125 C2.26152344 13.94818359 2.02304687 13.08386719 1.77734375 12.19335938 C1.55175781 11.35224609 1.32617188 10.51113281 1.09375 9.64453125 C0.88427734 8.87471924 0.67480469 8.10490723 0.45898438 7.31176758 C-0.03538729 4.82176477 -0.07833519 2.53218501 0 0 Z " fill="#3780C1" transform="translate(300,643)"/>
<path d="M0 0 C0.66 0 1.32 0 2 0 C1.44359561 3.53659775 0.3768247 4.84683682 -2.4375 7 C-5.20911351 9.12933981 -6.54541664 10.8304057 -8 14 C-10.47661852 16.88938827 -12.18522884 18.45503269 -16 19 C-12.98847673 13.89350403 -9.18996878 10.05679483 -4.92578125 5.953125 C-2.94278242 4.14350857 -2.94278242 4.14350857 -2 2 C-1.34 2 -0.68 2 0 2 C0 1.34 0 0.68 0 0 Z " fill="#3895CD" transform="translate(373,430)"/>
<path d="M0 0 C0.33 0.99 0.66 1.98 1 3 C0.67 3.66 0.34 4.32 0 5 C1.423125 4.9071875 1.423125 4.9071875 2.875 4.8125 C3.90625 4.874375 4.9375 4.93625 6 5 C8.29013653 8.4352048 8.17842973 9.985331 8 14 C3.125 10.25 3.125 10.25 2 8 C0.35 8.33 -1.3 8.66 -3 9 C-2.01 6.03 -1.02 3.06 0 0 Z " fill="#3B94D8" transform="translate(458,475)"/>
<path d="M0 0 C0.99 0 1.98 0 3 0 C3.33 0.66 3.66 1.32 4 2 C4.66 1.67 5.32 1.34 6 1 C6 1.66 6 2.32 6 3 C7.65 2.67 9.3 2.34 11 2 C11.33 3.98 11.66 5.96 12 8 C11.67 7.34 11.34 6.68 11 6 C10.67 6.66 10.34 7.32 10 8 C9.34 8 8.68 8 8 8 C7.67 7.34 7.34 6.68 7 6 C5.68 6 4.36 6 3 6 C0.75 5 0.75 5 -1 4 C-0.67 2.68 -0.34 1.36 0 0 Z " fill="#3CACE8" transform="translate(578,357)"/>
<path d="M0 0 C0.928125 0.165 1.85625 0.33 2.8125 0.5 C10.20657057 1.54986803 17.6619275 1.30454622 25 0 C24.67 0.66 24.34 1.32 24 2 C19.19396481 3.55033393 13.99180941 3.0872355 9 3 C9 4.65 9 6.3 9 8 C8.34 8 7.68 8 7 8 C6.67 6.35 6.34 4.7 6 3 C4.02 2.34 2.04 1.68 0 1 C0 0.67 0 0.34 0 0 Z " fill="#3780BF" transform="translate(408,502)"/>
<path d="M0 0 C7.75 -0.125 7.75 -0.125 10 1 C10 2.98 10 4.96 10 7 C8.68 7.33 7.36 7.66 6 8 C5.34 7.01 4.68 6.02 4 5 C3.34 5 2.68 5 2 5 C1.34 3.35 0.68 1.7 0 0 Z " fill="#3CADE8" transform="translate(483,356)"/>
<path d="M0 0 C1.07880981 3.74930621 0.77459419 6.39631379 0.0625 10.25 C-0.13214844 11.32765625 -0.32679688 12.4053125 -0.52734375 13.515625 C-0.76130859 14.74539063 -0.76130859 14.74539063 -1 16 C-1.66 16 -2.32 16 -3 16 C-3.33 17.98 -3.66 19.96 -4 22 C-5.0354051 18.8151065 -4.94040666 16.86968126 -4.00390625 13.671875 C-3.66069336 12.47304688 -3.66069336 12.47304688 -3.31054688 11.25 C-3.06369141 10.425 -2.81683594 9.6 -2.5625 8.75 C-2.31951172 7.90953125 -2.07652344 7.0690625 -1.82617188 6.203125 C-1.22626051 4.13284266 -0.61429181 2.06606103 0 0 Z " fill="#3578B6" transform="translate(571,633)"/>
<path d="M0 0 C0.33 0 0.66 0 1 0 C1.32098157 8.35740901 1.21819111 15.22270481 -2 23 C-2.33 23 -2.66 23 -3 23 C-2.67 19.37 -2.34 15.74 -2 12 C-1.34 12 -0.68 12 0 12 C0 8.04 0 4.08 0 0 Z " fill="#3478B4" transform="translate(606,657)"/>
<path d="M0 0 C0.66 0.33 1.32 0.66 2 1 C0.35 2.65 -1.3 4.3 -3 6 C-2.67 6.66 -2.34 7.32 -2 8 C-8.625 11.125 -8.625 11.125 -12 10 C-11.30132813 9.44570313 -10.60265625 8.89140625 -9.8828125 8.3203125 C-8.97273437 7.59585938 -8.06265625 6.87140625 -7.125 6.125 C-6.22007812 5.40570312 -5.31515625 4.68640625 -4.3828125 3.9453125 C-1.99734824 2.06439526 -1.99734824 2.06439526 0 0 Z " fill="#3474AD" transform="translate(593,819)"/>
<path d="M0 0 C0.33 0 0.66 0 1 0 C1 1.98 1 3.96 1 6 C1.66 6 2.32 6 3 6 C3 10.95 3 15.9 3 21 C2.67 21 2.34 21 2 21 C0.65504172 13.90294338 -0.24091535 7.2274605 0 0 Z " fill="#3578B6" transform="translate(297,621)"/>
<path d="M0 0 C3 2 3 2 3.51171875 4.171875 C3.56972656 5.02265625 3.62773437 5.8734375 3.6875 6.75 C3.75195312 7.63945312 3.81640625 8.52890625 3.8828125 9.4453125 C4.0138291 12.3014743 4.07522494 15.1414523 4 18 C2.36427347 15.03095016 1.51349012 12.32420253 0.875 9 C0.70742188 8.154375 0.53984375 7.30875 0.3671875 6.4375 C0 4 0 4 0 0 Z " fill="#378FC6" transform="translate(452,398)"/>
<path d="M0 0 C0.33 0 0.66 0 1 0 C2.20568053 4.67201205 2.09382426 9.21496292 2 14 C0.35 13.01 -1.3 12.02 -3 11 C-2.690625 10.484375 -2.38125 9.96875 -2.0625 9.4375 C-0.70940713 6.33334577 -0.38640576 3.34884993 0 0 Z " fill="#377EC0" transform="translate(746,576)"/>
<path d="M0 0 C0.66 0 1.32 0 2 0 C2 0.66 2 1.32 2 2 C2.66 2 3.32 2 4 2 C3 4 3 4 1 5 C0.34 4.34 -0.32 3.68 -1 3 C-0.67 2.01 -0.34 1.02 0 0 Z M-2 4 C-1.34 4.66 -0.68 5.32 0 6 C-0.99 6 -1.98 6 -3 6 C-2.67 5.34 -2.34 4.68 -2 4 Z M-4 6 C-3.67 6.66 -3.34 7.32 -3 8 C-4.65 9.32 -6.3 10.64 -8 12 C-8 11.01 -8 10.02 -8 9 C-6 7.3125 -6 7.3125 -4 6 Z " fill="#3BB7EB" transform="translate(375,430)"/>
<path d="M0 0 C2.5625 1.375 2.5625 1.375 5 4 C5.15019141 7.42221863 4.64674116 10.64463 4 14 C2.30566082 10.9530371 1.50532888 8.17178534 0.875 4.75 C0.70742188 3.85796875 0.53984375 2.9659375 0.3671875 2.046875 C0.18542969 1.03367187 0.18542969 1.03367187 0 0 Z " fill="#377EC0" transform="translate(568,586)"/>
<path d="M0 0 C1.65 1.65 3.3 3.3 5 5 C3.68 6.32 2.36 7.64 1 9 C-1.09230769 4.56923077 -1.09230769 4.56923077 -0.625 1.6875 C-0.41875 1.130625 -0.2125 0.57375 0 0 Z " fill="#3CB7EB" transform="translate(478,371)"/>
<path d="M0 0 C1.25127906 3.54667178 0.72285053 5.72253438 -0.4375 9.25 C-0.72496094 10.14203125 -1.01242187 11.0340625 -1.30859375 11.953125 C-1.53675781 12.62859375 -1.76492188 13.3040625 -2 14 C-2.33 14 -2.66 14 -3 14 C-3.125 6.375 -3.125 6.375 -2 3 C-1.34 3 -0.68 3 0 3 C0 2.01 0 1.02 0 0 Z " fill="#367CBB" transform="translate(741,662)"/>
<path d="M0 0 C2.50298434 2.93828597 3.46930939 5.17902761 4 9 C3.67 8.34 3.34 7.68 3 7 C2.01 7.33 1.02 7.66 0 8 C-0.33 7.67 -0.66 7.34 -1 7 C-0.71269945 4.66055264 -0.38063221 2.3260857 0 0 Z " fill="#388ECB" transform="translate(725,507)"/>
<path d="M0 0 C1.98 0.66 3.96 1.32 6 2 C5.67 3.32 5.34 4.64 5 6 C4.01 6 3.02 6 2 6 C0 3 0 3 0 0 Z " fill="#3BBFED" transform="translate(594,362)"/>
<path d="M0 0 C0.33 0 0.66 0 1 0 C0.88557539 1.60495567 0.75805306 3.20898119 0.625 4.8125 C0.55539062 5.70582031 0.48578125 6.59914063 0.4140625 7.51953125 C0 10 0 10 -2 13 C-2.05416188 11.39620659 -2.09286638 9.79188594 -2.125 8.1875 C-2.14820313 7.29417969 -2.17140625 6.40085937 -2.1953125 5.48046875 C-2 3 -2 3 0 0 Z " fill="#367DBB" transform="translate(744,649)"/>
<path d="M0 0 C0.66 0.66 1.32 1.32 2 2 C0.1875 4.5 0.1875 4.5 -2 7 C-2.99 7 -3.98 7 -5 7 C-3.70700306 4.11562221 -2.34058637 2.12780579 0 0 Z " fill="#3986CA" transform="translate(484,635)"/>
<path d="M0 0 C0.99 0 1.98 0 3 0 C2.71758359 1.46015291 2.42373386 2.91809793 2.125 4.375 C1.96257813 5.18710937 1.80015625 5.99921875 1.6328125 6.8359375 C1 9 1 9 -1 11 C-1.14285714 3.57142857 -1.14285714 3.57142857 0 0 Z " fill="#377FC0" transform="translate(522,574)"/>
<path d="M0 0 C2.93200474 2.85276137 5.64315404 5.65079784 8 9 C6.25 8.875 6.25 8.875 4 8 C0 2.77777778 0 2.77777778 0 0 Z " fill="#3897CF" transform="translate(645,397)"/>
<path d="M0 0 C0 3 0 3 -2.5 5.6875 C-3.325 6.450625 -4.15 7.21375 -5 8 C-5.99 7.34 -6.98 6.68 -8 6 C-5.36 4.02 -2.72 2.04 0 0 Z " fill="#3887C7" transform="translate(448,492)"/>
<path d="M0 0 C0.66 0 1.32 0 2 0 C1.60196439 2.88575819 1.20990931 3.82189513 -1.0625 5.75 C-1.701875 6.1625 -2.34125 6.575 -3 7 C-2.67 5.35 -2.34 3.7 -2 2 C-1.34 2 -0.68 2 0 2 C0 1.34 0 0.68 0 0 Z " fill="#38A2D3" transform="translate(373,430)"/>
<path d="" fill="#3B84B9" transform="translate(0,0)"/>
</svg>
