<?xml version="1.0" encoding="UTF-8"?>
<!DOCTYPE svg PUBLIC "-//W3C//DTD SVG 1.1//EN" "http://www.w3.org/Graphics/SVG/1.1/DTD/svg11.dtd">
<svg xmlns="http://www.w3.org/2000/svg" version="1.1" width="186px" height="377px" style="shape-rendering:geometricPrecision; text-rendering:geometricPrecision; image-rendering:optimizeQuality; fill-rule:evenodd; clip-rule:evenodd" xmlns:xlink="http://www.w3.org/1999/xlink">
<g><path style="opacity:1" fill="#4bbddc" d="M 78.5,55.5 C 77.5041,55.5858 76.6708,55.2524 76,54.5C 74.5873,52.3476 73.7539,50.0143 73.5,47.5C 72.5,47.5 71.5,47.5 70.5,47.5C 70.4467,50.1403 69.78,52.6403 68.5,55C 69.9863,57.5895 70.6529,60.4228 70.5,63.5C 66.1127,56.9355 64.1127,49.6022 64.5,41.5C 64.2201,33.2305 66.2201,25.5638 70.5,18.5C 71.365,17.4173 72.365,17.2506 73.5,18C 69.8142,31.2119 71.4809,43.7119 78.5,55.5 Z"/></g>
<g><path style="opacity:1" fill="#3dbae3" d="M 78.5,55.5 C 84.8127,64.1431 91.8127,72.1431 99.5,79.5C 98.8826,79.6107 98.3826,79.944 98,80.5C 97.6322,79.09 96.7989,78.09 95.5,77.5C 95.5,78.8333 95.5,80.1667 95.5,81.5C 93.9291,82.3094 92.2624,82.6427 90.5,82.5C 89.3608,85.0037 88.6941,87.6703 88.5,90.5C 82.2697,81.7218 76.2697,72.7218 70.5,63.5C 70.6529,60.4228 69.9863,57.5895 68.5,55C 69.78,52.6403 70.4467,50.1403 70.5,47.5C 71.5,47.5 72.5,47.5 73.5,47.5C 73.7539,50.0143 74.5873,52.3476 76,54.5C 76.6708,55.2524 77.5041,55.5858 78.5,55.5 Z"/></g>
<g><path style="opacity:1" fill="#25b5e3" d="M 99.5,79.5 C 99.8333,79.5 100.167,79.5 100.5,79.5C 99.3702,81.3146 98.7036,83.3146 98.5,85.5C 102.59,85.2674 103.257,87.1007 100.5,91C 101.849,91.7724 102.682,92.9391 103,94.5C 103.478,100.401 104.645,106.068 106.5,111.5C 104.386,117.869 102.886,124.536 102,131.5C 100.383,132.851 99.2162,134.518 98.5,136.5C 98.1667,136.167 97.8333,135.833 97.5,135.5C 98.5063,130.474 99.673,125.474 101,120.5C 101.889,121.888 102.389,121.722 102.5,120C 101.333,117.167 100.167,114.333 99,111.5C 98.1455,117.797 96.6455,123.797 94.5,129.5C 94.5,128.833 94.5,128.167 94.5,127.5C 94.5,125.5 94.5,123.5 94.5,121.5C 95.886,115.263 95.7193,108.929 94,102.5C 93.1618,101.001 92.3285,100.668 91.5,101.5C 90.3848,97.9544 89.3848,94.2877 88.5,90.5C 88.6941,87.6703 89.3608,85.0037 90.5,82.5C 92.2624,82.6427 93.9291,82.3094 95.5,81.5C 95.5,80.1667 95.5,78.8333 95.5,77.5C 96.7989,78.09 97.6322,79.09 98,80.5C 98.3826,79.944 98.8826,79.6107 99.5,79.5 Z"/></g>
<g><path style="opacity:1" fill="#35b8e3" d="M 100.5,79.5 C 120.062,97.8299 129.062,120.497 127.5,147.5C 126.566,146.432 126.232,145.099 126.5,143.5C 126.498,136.48 126.165,129.48 125.5,122.5C 124.5,122.5 123.5,122.5 122.5,122.5C 122.785,124.288 122.452,125.955 121.5,127.5C 120.585,126.672 119.919,125.672 119.5,124.5C 120.748,121.506 120.748,118.506 119.5,115.5C 117.911,118.421 116.411,121.421 115,124.5C 114.371,120.129 114.537,115.796 115.5,111.5C 114.5,111.5 113.5,111.5 112.5,111.5C 112.046,108.86 110.879,106.527 109,104.5C 109.03,107.361 108.197,109.695 106.5,111.5C 104.645,106.068 103.478,100.401 103,94.5C 102.682,92.9391 101.849,91.7724 100.5,91C 103.257,87.1007 102.59,85.2674 98.5,85.5C 98.7036,83.3146 99.3702,81.3146 100.5,79.5 Z"/></g>
<g><path style="opacity:1" fill="#c09377" d="M 91.5,104.5 C 92.4584,104.953 93.2917,105.619 94,106.5C 94.4993,111.489 94.6659,116.489 94.5,121.5C 94.5,123.5 94.5,125.5 94.5,127.5C 93.8333,128.5 93.1667,129.5 92.5,130.5C 93.4867,124.195 93.6534,117.862 93,111.5C 92.6174,112.056 92.1174,112.389 91.5,112.5C 91.5,109.833 91.5,107.167 91.5,104.5 Z"/></g>
<g><path style="opacity:1" fill="#1db1e3" d="M 112.5,111.5 C 113.5,111.5 114.5,111.5 115.5,111.5C 114.537,115.796 114.371,120.129 115,124.5C 116.411,121.421 117.911,118.421 119.5,115.5C 120.748,118.506 120.748,121.506 119.5,124.5C 119.919,125.672 120.585,126.672 121.5,127.5C 122.452,125.955 122.785,124.288 122.5,122.5C 123.5,122.5 124.5,122.5 125.5,122.5C 126.165,129.48 126.498,136.48 126.5,143.5C 125.503,143.47 124.836,143.97 124.5,145C 122.065,154.663 118.731,163.83 114.5,172.5C 114.894,168.653 115.894,164.986 117.5,161.5C 119.176,158.31 120.176,154.81 120.5,151C 120.596,148.193 119.596,145.86 117.5,144C 117.645,143.228 117.978,142.561 118.5,142C 119.951,142.263 121.284,142.096 122.5,141.5C 118.191,140.847 114.191,139.347 110.5,137C 110.121,134.812 108.954,132.645 107,130.5C 106.023,134.829 105.19,139.162 104.5,143.5C 103.5,143.5 102.5,143.5 101.5,143.5C 103.584,133.467 106.084,123.801 109,114.5C 109.759,112.937 110.926,111.937 112.5,111.5 Z"/></g>
<g><path style="opacity:1" fill="#659daa" d="M 94.5,121.5 C 94.6659,116.489 94.4993,111.489 94,106.5C 93.2917,105.619 92.4584,104.953 91.5,104.5C 91.5,103.5 91.5,102.5 91.5,101.5C 92.3285,100.668 93.1618,101.001 94,102.5C 95.7193,108.929 95.886,115.263 94.5,121.5 Z"/></g>
<g><path style="opacity:0.945" fill="#78c9de" d="M 56.5,121.5 C 55.325,121.281 54.325,121.614 53.5,122.5C 54.7914,123.527 54.7914,124.527 53.5,125.5C 51.9256,122.894 50.2589,120.227 48.5,117.5C 49.723,116.386 51.0563,116.219 52.5,117C 53.6988,118.694 55.0322,120.194 56.5,121.5 Z"/></g>
<g><path style="opacity:0.997" fill="#e88756" d="M 92.5,130.5 C 92.5,131.167 92.1667,131.5 91.5,131.5C 91.762,130.022 91.4287,128.689 90.5,127.5C 88.1343,132.339 85.801,137.006 83.5,141.5C 85.0204,136.107 86.8537,130.774 89,125.5C 89.6241,121.082 90.4574,116.749 91.5,112.5C 92.1174,112.389 92.6174,112.056 93,111.5C 93.6534,117.862 93.4867,124.195 92.5,130.5 Z"/></g>
<g><path style="opacity:1" fill="#60bcdf" d="M 56.5,121.5 C 60.1667,123.167 62.8333,125.833 64.5,129.5C 62.636,129.321 60.636,129.821 58.5,131C 59.4601,134.73 59.7935,138.563 59.5,142.5C 57.9486,136.855 55.9486,131.188 53.5,125.5C 54.7914,124.527 54.7914,123.527 53.5,122.5C 54.325,121.614 55.325,121.281 56.5,121.5 Z"/></g>
<g><path style="opacity:1" fill="#58a7d3" d="M 64.5,129.5 C 68.8346,133.529 71.5013,138.529 72.5,144.5C 71.2921,143.766 69.9587,143.433 68.5,143.5C 68.157,139.562 66.157,138.562 62.5,140.5C 61.5046,146.128 61.1712,151.794 61.5,157.5C 61.5,159.5 61.5,161.5 61.5,163.5C 61.7678,165.099 61.4345,166.432 60.5,167.5C 60.5728,159.146 60.2395,150.812 59.5,142.5C 59.7935,138.563 59.4601,134.73 58.5,131C 60.636,129.821 62.636,129.321 64.5,129.5 Z"/></g>
<g><path style="opacity:1" fill="#f27d34" d="M 91.5,131.5 C 91.3259,133.861 90.9926,136.194 90.5,138.5C 89.0687,139.78 88.4021,141.447 88.5,143.5C 88.6716,144.492 88.3382,145.158 87.5,145.5C 86.0689,145.881 85.2355,146.881 85,148.5C 83.7978,146.323 83.2978,143.989 83.5,141.5C 85.801,137.006 88.1343,132.339 90.5,127.5C 91.4287,128.689 91.762,130.022 91.5,131.5 Z"/></g>
<g><path style="opacity:1" fill="#559fb8" d="M 94.5,127.5 C 94.5,128.167 94.5,128.833 94.5,129.5C 93.1667,133.5 93.1667,137.5 94.5,141.5C 92.4078,141.561 90.9078,142.561 90,144.5C 89.4518,147.873 88.1184,150.873 86,153.5C 85.5065,155.134 85.3398,156.801 85.5,158.5C 84.391,158.557 83.391,158.89 82.5,159.5C 82.5,159.167 82.5,158.833 82.5,158.5C 84.1717,154.164 85.8384,149.831 87.5,145.5C 88.3382,145.158 88.6716,144.492 88.5,143.5C 90.2132,142.365 90.8799,140.698 90.5,138.5C 90.9926,136.194 91.3259,133.861 91.5,131.5C 92.1667,131.5 92.5,131.167 92.5,130.5C 93.1667,129.5 93.8333,128.5 94.5,127.5 Z"/></g>
<g><path style="opacity:1" fill="#2583c2" d="M 72.5,144.5 C 73.7736,146.993 74.4403,149.659 74.5,152.5C 73.4415,151.4 72.6082,150.066 72,148.5C 70.98,149.891 70.1466,151.391 69.5,153C 68.1667,153.333 66.8333,153.667 65.5,154C 64.4677,155.627 63.1344,156.793 61.5,157.5C 61.1712,151.794 61.5046,146.128 62.5,140.5C 66.157,138.562 68.157,139.562 68.5,143.5C 69.9587,143.433 71.2921,143.766 72.5,144.5 Z"/></g>
<g><path style="opacity:1" fill="#aa8c69" d="M 90.5,138.5 C 90.8799,140.698 90.2132,142.365 88.5,143.5C 88.4021,141.447 89.0687,139.78 90.5,138.5 Z"/></g>
<g><path style="opacity:1" fill="#18a6dc" d="M 117.5,161.5 C 115.894,164.986 114.894,168.653 114.5,172.5C 114.068,173.71 113.401,174.71 112.5,175.5C 111.332,171.799 110.166,168.132 109,164.5C 107.964,167.294 106.464,167.794 104.5,166C 100.129,165.828 95.7956,165.328 91.5,164.5C 89.1455,162.812 87.1455,160.812 85.5,158.5C 85.3398,156.801 85.5065,155.134 86,153.5C 88.1184,150.873 89.4518,147.873 90,144.5C 90.9078,142.561 92.4078,141.561 94.5,141.5C 100.336,139.666 101.669,141.333 98.5,146.5C 103.465,149.964 107.965,153.964 112,158.5C 113.667,155.167 115.333,151.833 117,148.5C 117.309,149.766 117.809,150.933 118.5,152C 117.833,154.667 117.167,157.333 116.5,160C 117.056,160.383 117.389,160.883 117.5,161.5 Z"/></g>
<g><path style="opacity:1" fill="#1aace1" d="M 112.5,111.5 C 110.926,111.937 109.759,112.937 109,114.5C 106.084,123.801 103.584,133.467 101.5,143.5C 102.5,143.5 103.5,143.5 104.5,143.5C 105.19,139.162 106.023,134.829 107,130.5C 108.954,132.645 110.121,134.812 110.5,137C 114.191,139.347 118.191,140.847 122.5,141.5C 121.284,142.096 119.951,142.263 118.5,142C 117.978,142.561 117.645,143.228 117.5,144C 119.596,145.86 120.596,148.193 120.5,151C 120.176,154.81 119.176,158.31 117.5,161.5C 117.389,160.883 117.056,160.383 116.5,160C 117.167,157.333 117.833,154.667 118.5,152C 117.809,150.933 117.309,149.766 117,148.5C 115.333,151.833 113.667,155.167 112,158.5C 107.965,153.964 103.465,149.964 98.5,146.5C 101.669,141.333 100.336,139.666 94.5,141.5C 93.1667,137.5 93.1667,133.5 94.5,129.5C 96.6455,123.797 98.1455,117.797 99,111.5C 100.167,114.333 101.333,117.167 102.5,120C 102.389,121.722 101.889,121.888 101,120.5C 99.673,125.474 98.5063,130.474 97.5,135.5C 97.8333,135.833 98.1667,136.167 98.5,136.5C 99.2162,134.518 100.383,132.851 102,131.5C 102.886,124.536 104.386,117.869 106.5,111.5C 108.197,109.695 109.03,107.361 109,104.5C 110.879,106.527 112.046,108.86 112.5,111.5 Z"/></g>
<g><path style="opacity:1" fill="#24589b" d="M 74.5,152.5 C 74.9515,156.104 73.9515,159.104 71.5,161.5C 71.7852,159.712 71.4519,158.045 70.5,156.5C 69.2954,158.138 67.9621,158.471 66.5,157.5C 64.7175,159.023 64.0508,161.023 64.5,163.5C 63.5,163.5 62.5,163.5 61.5,163.5C 61.5,161.5 61.5,159.5 61.5,157.5C 63.1344,156.793 64.4677,155.627 65.5,154C 66.8333,153.667 68.1667,153.333 69.5,153C 70.1466,151.391 70.98,149.891 72,148.5C 72.6082,150.066 73.4415,151.4 74.5,152.5 Z"/></g>
<g><path style="opacity:1" fill="#ee9144" d="M 83.5,141.5 C 83.2978,143.989 83.7978,146.323 85,148.5C 85.2355,146.881 86.0689,145.881 87.5,145.5C 85.8384,149.831 84.1717,154.164 82.5,158.5C 81.5,159.167 80.5,159.833 79.5,160.5C 79.9118,158.027 78.9118,156.694 76.5,156.5C 76.8333,155.167 77.1667,153.833 77.5,152.5C 78.7219,148.388 80.7219,144.721 83.5,141.5 Z"/></g>
<g><path style="opacity:1" fill="#c48c5d" d="M 74.5,152.5 C 75.5,153.833 76.5,153.833 77.5,152.5C 77.1667,153.833 76.8333,155.167 76.5,156.5C 75.678,158.389 74.8447,160.389 74,162.5C 73.3292,163.252 72.4959,163.586 71.5,163.5C 71.5,163.167 71.5,162.833 71.5,162.5C 71.5,162.167 71.5,161.833 71.5,161.5C 73.9515,159.104 74.9515,156.104 74.5,152.5 Z"/></g>
<g><path style="opacity:1" fill="#214792" d="M 71.5,161.5 C 71.5,161.833 71.5,162.167 71.5,162.5C 69.5923,163.486 68.5923,165.152 68.5,167.5C 66.8333,169.5 65.1667,171.5 63.5,173.5C 61.0311,172.393 60.0311,170.393 60.5,167.5C 61.4345,166.432 61.7678,165.099 61.5,163.5C 62.5,163.5 63.5,163.5 64.5,163.5C 64.0508,161.023 64.7175,159.023 66.5,157.5C 67.9621,158.471 69.2954,158.138 70.5,156.5C 71.4519,158.045 71.7852,159.712 71.5,161.5 Z"/></g>
<g><path style="opacity:1" fill="#675d66" d="M 71.5,162.5 C 71.5,162.833 71.5,163.167 71.5,163.5C 70.8571,165.076 69.8571,166.41 68.5,167.5C 68.5923,165.152 69.5923,163.486 71.5,162.5 Z"/></g>
<g><path style="opacity:1" fill="#9c9a78" d="M 82.5,158.5 C 82.5,158.833 82.5,159.167 82.5,159.5C 80.9757,162.074 79.6424,164.741 78.5,167.5C 77.8333,167.833 77.1667,168.167 76.5,168.5C 77.5515,165.807 78.5515,163.14 79.5,160.5C 80.5,159.833 81.5,159.167 82.5,158.5 Z"/></g>
<g><path style="opacity:1" fill="#199ed5" d="M 85.5,158.5 C 87.1455,160.812 89.1455,162.812 91.5,164.5C 95.7956,165.328 100.129,165.828 104.5,166C 106.464,167.794 107.964,167.294 109,164.5C 110.166,168.132 111.332,171.799 112.5,175.5C 111.113,179.275 109.447,182.941 107.5,186.5C 103.252,193.422 98.5855,200.089 93.5,206.5C 93.523,204.073 94.023,201.74 95,199.5C 96.7073,197.963 98.2073,196.296 99.5,194.5C 102.219,189.537 105.219,184.703 108.5,180C 105.568,177.918 102.401,176.418 99,175.5C 96.9501,175.691 95.1168,176.358 93.5,177.5C 92.8333,176.167 92.1667,174.833 91.5,173.5C 90.4679,175.04 89.1346,175.54 87.5,175C 88.3685,173.535 87.8685,172.369 86,171.5C 84.6998,172.707 83.1998,173.374 81.5,173.5C 81.3832,171.516 82.0499,169.85 83.5,168.5C 82.218,166.296 80.5514,165.962 78.5,167.5C 79.6424,164.741 80.9757,162.074 82.5,159.5C 83.391,158.89 84.391,158.557 85.5,158.5 Z"/></g>
<g><path style="opacity:1" fill="#909b7d" d="M 76.5,168.5 C 76.0023,171.326 74.6689,173.66 72.5,175.5C 73.0787,172.669 74.412,170.336 76.5,168.5 Z"/></g>
<g><path style="opacity:1" fill="#1e98d1" d="M 99.5,194.5 C 99.6882,192.897 99.1882,191.563 98,190.5C 96.3005,191.406 94.4672,191.739 92.5,191.5C 92.5,190.167 92.5,188.833 92.5,187.5C 87.3506,186.951 82.8506,184.951 79,181.5C 76.6692,183.055 74.6692,182.721 73,180.5C 70.7131,182.054 68.5465,183.721 66.5,185.5C 68.8977,182.429 70.8977,179.095 72.5,175.5C 74.6689,173.66 76.0023,171.326 76.5,168.5C 77.1667,168.167 77.8333,167.833 78.5,167.5C 80.5514,165.962 82.218,166.296 83.5,168.5C 82.0499,169.85 81.3832,171.516 81.5,173.5C 83.1998,173.374 84.6998,172.707 86,171.5C 87.8685,172.369 88.3685,173.535 87.5,175C 89.1346,175.54 90.4679,175.04 91.5,173.5C 92.1667,174.833 92.8333,176.167 93.5,177.5C 95.1168,176.358 96.9501,175.691 99,175.5C 102.401,176.418 105.568,177.918 108.5,180C 105.219,184.703 102.219,189.537 99.5,194.5 Z"/></g>
<g><path style="opacity:0.839" fill="#696e8e" d="M 60.5,167.5 C 60.0311,170.393 61.0311,172.393 63.5,173.5C 62.8106,176.189 61.144,177.856 58.5,178.5C 58.8084,174.64 59.4751,170.974 60.5,167.5 Z"/></g>
<g><path style="opacity:1" fill="#4adaeb" d="M 126.5,143.5 C 126.232,145.099 126.566,146.432 127.5,147.5C 125.972,162.29 121.972,176.29 115.5,189.5C 115.5,188.833 115.167,188.5 114.5,188.5C 115.369,186.283 115.702,183.95 115.5,181.5C 114.448,181.351 113.448,181.517 112.5,182C 111.286,184.049 109.62,185.549 107.5,186.5C 109.447,182.941 111.113,179.275 112.5,175.5C 113.401,174.71 114.068,173.71 114.5,172.5C 118.731,163.83 122.065,154.663 124.5,145C 124.836,143.97 125.503,143.47 126.5,143.5 Z"/></g>
<g><path style="opacity:1" fill="#a2a278" d="M 72.5,175.5 C 70.8977,179.095 68.8977,182.429 66.5,185.5C 66.5,185.833 66.5,186.167 66.5,186.5C 64.6666,188.112 62.9999,189.778 61.5,191.5C 63.7198,185.179 67.3865,179.845 72.5,175.5 Z"/></g>
<g><path style="opacity:1" fill="#1b91ce" d="M 99.5,194.5 C 98.2073,196.296 96.7073,197.963 95,199.5C 94.023,201.74 93.523,204.073 93.5,206.5C 91.7328,208.938 90.3994,211.605 89.5,214.5C 88.8333,214.833 88.1667,215.167 87.5,215.5C 87.5,214.833 87.5,214.167 87.5,213.5C 88.3019,212.048 88.8019,210.382 89,208.5C 89.6667,207.167 90.3333,207.167 91,208.5C 91.8085,203.283 89.6419,199.783 84.5,198C 80.4902,196.66 76.4902,195.327 72.5,194C 70.9782,192.478 69.4782,190.978 68,189.5C 67.228,189.645 66.5613,189.978 66,190.5C 65.805,189.181 65.9717,187.847 66.5,186.5C 66.5,186.167 66.5,185.833 66.5,185.5C 68.5465,183.721 70.7131,182.054 73,180.5C 74.6692,182.721 76.6692,183.055 79,181.5C 82.8506,184.951 87.3506,186.951 92.5,187.5C 92.5,188.833 92.5,190.167 92.5,191.5C 94.4672,191.739 96.3005,191.406 98,190.5C 99.1882,191.563 99.6882,192.897 99.5,194.5 Z"/></g>
<g><path style="opacity:1" fill="#1e8ac6" d="M 66.5,186.5 C 65.9717,187.847 65.805,189.181 66,190.5C 66.5613,189.978 67.228,189.645 68,189.5C 69.4782,190.978 70.9782,192.478 72.5,194C 76.4902,195.327 80.4902,196.66 84.5,198C 89.6419,199.783 91.8085,203.283 91,208.5C 90.3333,207.167 89.6667,207.167 89,208.5C 88.8019,210.382 88.3019,212.048 87.5,213.5C 88.0756,211.35 87.4089,209.35 85.5,207.5C 83.5721,209.05 81.7387,210.717 80,212.5C 79.5,212 79,211.5 78.5,211C 79.3366,209.989 79.67,208.822 79.5,207.5C 75.3173,206.686 71.3173,205.353 67.5,203.5C 65.288,204.047 63.6213,203.047 62.5,200.5C 63.0253,199.808 63.6919,199.308 64.5,199C 63.1667,198 63.1667,197 64.5,196C 63.2161,195.316 62.0495,195.483 61,196.5C 60.7096,198.92 60.2096,201.254 59.5,203.5C 56.911,203.461 54.911,204.461 53.5,206.5C 52.8333,206.833 52.1667,207.167 51.5,207.5C 52.5,205.5 53.5,203.5 54.5,201.5C 57.3183,199.021 59.3183,196.021 60.5,192.5C 60.5,191.833 60.8333,191.5 61.5,191.5C 62.9999,189.778 64.6666,188.112 66.5,186.5 Z"/></g>
<g><path style="opacity:1" fill="#90866a" d="M 60.5,192.5 C 59.3183,196.021 57.3183,199.021 54.5,201.5C 55.7232,197.951 57.7232,194.951 60.5,192.5 Z"/></g>
<g><path style="opacity:0.996" fill="#4b6599" d="M 114.5,188.5 C 115.167,188.5 115.5,188.833 115.5,189.5C 115.72,194.1 115.054,198.433 113.5,202.5C 112.517,206.298 112.183,210.298 112.5,214.5C 112.167,214.5 111.833,214.5 111.5,214.5C 111.666,209.489 111.499,204.489 111,199.5C 110.292,200.381 109.458,201.047 108.5,201.5C 108.5,200.833 108.5,200.167 108.5,199.5C 109.458,199.047 110.292,198.381 111,197.5C 111.889,194.324 113.055,191.324 114.5,188.5 Z"/></g>
<g><path style="opacity:1" fill="#f0a23b" d="M 76.5,156.5 C 78.9118,156.694 79.9118,158.027 79.5,160.5C 78.5515,163.14 77.5515,165.807 76.5,168.5C 74.412,170.336 73.0787,172.669 72.5,175.5C 67.3865,179.845 63.7198,185.179 61.5,191.5C 60.8333,191.5 60.5,191.833 60.5,192.5C 57.7232,194.951 55.7232,197.951 54.5,201.5C 51.5293,203.443 49.5293,206.109 48.5,209.5C 48.1667,209.5 47.8333,209.5 47.5,209.5C 47.7135,207.856 47.3802,206.356 46.5,205C 48.6321,203.303 49.9654,201.136 50.5,198.5C 48.8762,198.36 47.7096,199.027 47,200.5C 46.6174,199.944 46.1174,199.611 45.5,199.5C 46.1098,198.609 46.4431,197.609 46.5,196.5C 50.5,190.5 54.5,184.5 58.5,178.5C 61.144,177.856 62.8106,176.189 63.5,173.5C 65.1667,171.5 66.8333,169.5 68.5,167.5C 69.8571,166.41 70.8571,165.076 71.5,163.5C 72.4959,163.586 73.3292,163.252 74,162.5C 74.8447,160.389 75.678,158.389 76.5,156.5 Z"/></g>
<g><path style="opacity:1" fill="#1c86c6" d="M 87.5,213.5 C 87.5,214.167 87.5,214.833 87.5,215.5C 86.6618,215.842 86.3284,216.508 86.5,217.5C 84.4304,221.266 81.7637,224.599 78.5,227.5C 78.4411,224.951 79.4411,222.951 81.5,221.5C 80.3493,220.269 79.1827,220.269 78,221.5C 77.5503,219.481 76.717,217.648 75.5,216C 71.8333,215.667 68.1667,215.333 64.5,215C 62.4808,211.807 60.8141,212.14 59.5,216C 58.8333,216.667 58.1667,216.667 57.5,216C 58.0585,215.275 58.3918,214.442 58.5,213.5C 57.0629,211.423 56.3962,209.09 56.5,206.5C 57.5,206.5 58.5,206.5 59.5,206.5C 59.5,205.5 59.5,204.5 59.5,203.5C 60.2096,201.254 60.7096,198.92 61,196.5C 62.0495,195.483 63.2161,195.316 64.5,196C 63.1667,197 63.1667,198 64.5,199C 63.6919,199.308 63.0253,199.808 62.5,200.5C 63.6213,203.047 65.288,204.047 67.5,203.5C 71.3173,205.353 75.3173,206.686 79.5,207.5C 79.67,208.822 79.3366,209.989 78.5,211C 79,211.5 79.5,212 80,212.5C 81.7387,210.717 83.5721,209.05 85.5,207.5C 87.4089,209.35 88.0756,211.35 87.5,213.5 Z"/></g>
<g><path style="opacity:1" fill="#928b6e" d="M 54.5,201.5 C 53.5,203.5 52.5,205.5 51.5,207.5C 50.5,208.167 49.5,208.833 48.5,209.5C 49.5293,206.109 51.5293,203.443 54.5,201.5 Z"/></g>
<g><path style="opacity:1" fill="#32e5f3" d="M 114.5,188.5 C 113.055,191.324 111.889,194.324 111,197.5C 110.292,198.381 109.458,199.047 108.5,199.5C 110.202,190.154 108.869,189.487 104.5,197.5C 103.675,198.386 102.675,198.719 101.5,198.5C 100.39,205.927 96.3897,211.261 89.5,214.5C 90.3994,211.605 91.7328,208.938 93.5,206.5C 98.5855,200.089 103.252,193.422 107.5,186.5C 109.62,185.549 111.286,184.049 112.5,182C 113.448,181.517 114.448,181.351 115.5,181.5C 115.702,183.95 115.369,186.283 114.5,188.5 Z"/></g>
<g><path style="opacity:1" fill="#f49835" d="M 47.5,209.5 C 46.8333,210.5 46.1667,211.5 45.5,212.5C 44.0002,213.588 42.6669,214.921 41.5,216.5C 39.8877,215.451 38.8877,213.951 38.5,212C 40.2068,210.268 40.8734,208.435 40.5,206.5C 41.8333,205.5 43.1667,204.5 44.5,203.5C 45.4287,202.311 45.762,200.978 45.5,199.5C 46.1174,199.611 46.6174,199.944 47,200.5C 47.7096,199.027 48.8762,198.36 50.5,198.5C 49.9654,201.136 48.6321,203.303 46.5,205C 47.3802,206.356 47.7135,207.856 47.5,209.5 Z"/></g>
<g><path style="opacity:1" fill="#5edce2" d="M 139.5,223.5 C 137.711,218.593 136.878,213.26 137,207.5C 137.431,215.632 135.097,216.632 130,210.5C 128.665,213.959 126.832,216.959 124.5,219.5C 125.59,210.381 129.09,202.381 135,195.5C 137.323,193.011 139.823,190.678 142.5,188.5C 142.833,189.167 143.167,189.833 143.5,190.5C 138.816,201.016 137.483,212.016 139.5,223.5 Z"/></g>
<g><path style="opacity:1" fill="#1c81c2" d="M 59.5,203.5 C 59.5,204.5 59.5,205.5 59.5,206.5C 58.5,206.5 57.5,206.5 56.5,206.5C 56.3962,209.09 57.0629,211.423 58.5,213.5C 58.3918,214.442 58.0585,215.275 57.5,216C 58.1667,216.667 58.8333,216.667 59.5,216C 60.8141,212.14 62.4808,211.807 64.5,215C 68.1667,215.333 71.8333,215.667 75.5,216C 76.717,217.648 77.5503,219.481 78,221.5C 79.1827,220.269 80.3493,220.269 81.5,221.5C 79.4411,222.951 78.4411,224.951 78.5,227.5C 77.0582,228.82 76.3915,230.486 76.5,232.5C 74.2632,234.647 72.2632,236.98 70.5,239.5C 70.3553,235.084 72.0219,231.584 75.5,229C 74.7875,227.558 73.6209,226.725 72,226.5C 69.9423,227.112 68.109,228.112 66.5,229.5C 65.5,229 64.5,228.5 63.5,228C 63.8333,227.667 64.1667,227.333 64.5,227C 60.8997,225.969 59.8997,223.802 61.5,220.5C 60.4855,219.319 59.3188,218.319 58,217.5C 56.7202,217.613 55.8869,218.28 55.5,219.5C 59.5303,219.995 59.3636,221.328 55,223.5C 51.5239,222.133 51.0239,220.3 53.5,218C 52.6198,216.644 52.2865,215.144 52.5,213.5C 52.6741,211.139 53.0074,208.806 53.5,206.5C 54.911,204.461 56.911,203.461 59.5,203.5 Z"/></g>
<g><path style="opacity:1" fill="#175e9a" d="M 108.5,201.5 C 107.279,207.596 104.446,212.929 100,217.5C 97.3034,221.68 95.1367,226.014 93.5,230.5C 93.5172,228.435 93.8505,226.435 94.5,224.5C 98.4336,216.334 103.1,208.667 108.5,201.5 Z"/></g>
<g><path style="opacity:1" fill="#eda056" d="M 46.5,196.5 C 46.4431,197.609 46.1098,198.609 45.5,199.5C 45.762,200.978 45.4287,202.311 44.5,203.5C 43.1667,204.5 41.8333,205.5 40.5,206.5C 40.8734,208.435 40.2068,210.268 38.5,212C 38.8877,213.951 39.8877,215.451 41.5,216.5C 42.6669,214.921 44.0002,213.588 45.5,212.5C 44.8902,213.391 44.5569,214.391 44.5,215.5C 43.2112,216.637 42.2112,217.97 41.5,219.5C 41.1667,219.5 40.8333,219.5 40.5,219.5C 39.2583,217.75 37.7583,216.083 36,214.5C 33.932,216.396 32.0987,218.396 30.5,220.5C 34.8319,211.837 40.1653,203.837 46.5,196.5 Z"/></g>
<g><path style="opacity:1" fill="#6f736f" d="M 47.5,209.5 C 47.8333,209.5 48.1667,209.5 48.5,209.5C 47.7023,211.966 46.369,213.966 44.5,215.5C 44.5569,214.391 44.8902,213.391 45.5,212.5C 46.1667,211.5 46.8333,210.5 47.5,209.5 Z"/></g>
<g><path style="opacity:1" fill="#22609a" d="M 53.5,206.5 C 53.0074,208.806 52.6741,211.139 52.5,213.5C 49.7821,217.565 47.7821,221.899 46.5,226.5C 48.1607,223.137 47.1607,220.803 43.5,219.5C 41.7649,222.541 39.7649,225.208 37.5,227.5C 38.3944,224.608 39.7277,221.941 41.5,219.5C 42.2112,217.97 43.2112,216.637 44.5,215.5C 46.369,213.966 47.7023,211.966 48.5,209.5C 49.5,208.833 50.5,208.167 51.5,207.5C 52.1667,207.167 52.8333,206.833 53.5,206.5 Z"/></g>
<g><path style="opacity:1" fill="#2ef2f5" d="M 108.5,199.5 C 108.5,200.167 108.5,200.833 108.5,201.5C 103.1,208.667 98.4336,216.334 94.5,224.5C 91.3819,227.36 88.3819,230.36 85.5,233.5C 83.585,231.929 82.585,229.929 82.5,227.5C 83.5,227.5 84.5,227.5 85.5,227.5C 85.3424,224.098 85.6758,220.764 86.5,217.5C 86.3284,216.508 86.6618,215.842 87.5,215.5C 88.1667,215.167 88.8333,214.833 89.5,214.5C 96.3897,211.261 100.39,205.927 101.5,198.5C 102.675,198.719 103.675,198.386 104.5,197.5C 108.869,189.487 110.202,190.154 108.5,199.5 Z"/></g>
<g><path style="opacity:1" fill="#1f78be" d="M 52.5,213.5 C 52.2865,215.144 52.6198,216.644 53.5,218C 51.0239,220.3 51.5239,222.133 55,223.5C 59.3636,221.328 59.5303,219.995 55.5,219.5C 55.8869,218.28 56.7202,217.613 58,217.5C 59.3188,218.319 60.4855,219.319 61.5,220.5C 59.8997,223.802 60.8997,225.969 64.5,227C 64.1667,227.333 63.8333,227.667 63.5,228C 64.5,228.5 65.5,229 66.5,229.5C 68.109,228.112 69.9423,227.112 72,226.5C 73.6209,226.725 74.7875,227.558 75.5,229C 72.0219,231.584 70.3553,235.084 70.5,239.5C 66.0619,245.375 62.3953,251.708 59.5,258.5C 58.1667,260.167 56.8333,261.833 55.5,263.5C 55.636,259.312 56.8027,255.645 59,252.5C 55.0584,248.947 50.5584,246.614 45.5,245.5C 44.5963,244.381 43.9296,242.881 43.5,241C 43.6962,239.122 44.0295,237.288 44.5,235.5C 45.1667,232.5 45.8333,229.5 46.5,226.5C 47.7821,221.899 49.7821,217.565 52.5,213.5 Z"/></g>
<g><path style="opacity:0.494" fill="#f0ad7d" d="M 30.5,220.5 C 29.8333,222.5 29.1667,224.5 28.5,226.5C 27.5,228.167 26.1667,229.5 24.5,230.5C 26.3184,227.026 28.3184,223.693 30.5,220.5 Z"/></g>
<g><path style="opacity:1" fill="#f28b37" d="M 40.5,219.5 C 37.1667,224.5 33.8333,229.5 30.5,234.5C 30.4433,232.116 30.7766,229.782 31.5,227.5C 31.1237,225.197 30.1237,224.863 28.5,226.5C 29.1667,224.5 29.8333,222.5 30.5,220.5C 32.0987,218.396 33.932,216.396 36,214.5C 37.7583,216.083 39.2583,217.75 40.5,219.5 Z"/></g>
<g><path style="opacity:1" fill="#1b4e9b" d="M 111.5,214.5 C 111.5,215.167 111.5,215.833 111.5,216.5C 109.236,218.097 107.236,220.097 105.5,222.5C 104.271,223.281 102.938,223.781 101.5,224C 102.5,224.833 103.5,225.667 104.5,226.5C 103.717,229.907 102.05,232.74 99.5,235C 98.4137,239.121 97.0804,243.121 95.5,247C 95.5,249.667 95.5,252.333 95.5,255C 95.1667,255.167 94.8333,255.333 94.5,255.5C 94.1667,254.333 93.8333,253.167 93.5,252C 94.1416,244.862 94.1416,237.695 93.5,230.5C 95.1367,226.014 97.3034,221.68 100,217.5C 104.446,212.929 107.279,207.596 108.5,201.5C 109.458,201.047 110.292,200.381 111,199.5C 111.499,204.489 111.666,209.489 111.5,214.5 Z"/></g>
<g><path style="opacity:1" fill="#3ac3d9" d="M 139.5,223.5 C 140.891,230.339 142.891,237.006 145.5,243.5C 142.196,242.506 138.863,241.506 135.5,240.5C 134.258,242.733 132.924,244.899 131.5,247C 133.645,248.818 133.645,250.318 131.5,251.5C 130.036,248.997 128.869,246.33 128,243.5C 126.708,242.209 125.542,242.209 124.5,243.5C 124.167,243.5 123.833,243.5 123.5,243.5C 122.379,235.323 122.713,227.323 124.5,219.5C 126.832,216.959 128.665,213.959 130,210.5C 135.097,216.632 137.431,215.632 137,207.5C 136.878,213.26 137.711,218.593 139.5,223.5 Z"/></g>
<g><path style="opacity:0.078" fill="#f8dfbb" d="M 24.5,231.5 C 24.5,232.167 24.5,232.833 24.5,233.5C 23.8333,233.833 23.1667,234.167 22.5,234.5C 22.427,232.973 23.0937,231.973 24.5,231.5 Z"/></g>
<g><path style="opacity:1" fill="#5394c1" d="M 113.5,202.5 C 113.326,216.142 115.992,229.142 121.5,241.5C 120.778,241.918 120.278,242.584 120,243.5C 119.138,241.913 118.471,240.246 118,238.5C 116.989,239.337 115.822,239.67 114.5,239.5C 114.209,231.134 113.543,222.801 112.5,214.5C 112.183,210.298 112.517,206.298 113.5,202.5 Z"/></g>
<g><path style="opacity:1" fill="#bb8360" d="M 40.5,219.5 C 40.8333,219.5 41.1667,219.5 41.5,219.5C 39.7277,221.941 38.3944,224.608 37.5,227.5C 33.928,230.854 31.2614,234.854 29.5,239.5C 29.1667,239.5 28.8333,239.5 28.5,239.5C 28.3915,237.486 29.0582,235.82 30.5,234.5C 33.8333,229.5 37.1667,224.5 40.5,219.5 Z"/></g>
<g><path style="opacity:1" fill="#1e539c" d="M 46.5,226.5 C 45.8333,229.5 45.1667,232.5 44.5,235.5C 43.8826,235.611 43.3826,235.944 43,236.5C 41.8383,242.798 41.0049,249.131 40.5,255.5C 40.1667,255.5 39.8333,255.5 39.5,255.5C 39.6641,252.813 39.4974,250.146 39,247.5C 37.9235,249.705 37.2568,251.705 37,253.5C 36.15,252.576 35.15,252.576 34,253.5C 32.3257,252.165 30.659,250.831 29,249.5C 28.2904,250.973 27.1238,251.64 25.5,251.5C 27.0367,247.557 28.37,243.557 29.5,239.5C 31.2614,234.854 33.928,230.854 37.5,227.5C 39.7649,225.208 41.7649,222.541 43.5,219.5C 47.1607,220.803 48.1607,223.137 46.5,226.5 Z"/></g>
<g><path style="opacity:1" fill="#40e3eb" d="M 86.5,217.5 C 85.6758,220.764 85.3424,224.098 85.5,227.5C 84.5,227.5 83.5,227.5 82.5,227.5C 82.585,229.929 83.585,231.929 85.5,233.5C 88.3819,230.36 91.3819,227.36 94.5,224.5C 93.8505,226.435 93.5172,228.435 93.5,230.5C 92.8333,231.167 92.1667,231.833 91.5,232.5C 91.1667,229.833 90.8333,229.833 90.5,232.5C 87.0776,237.678 83.411,242.678 79.5,247.5C 78.5,247.5 77.5,247.5 76.5,247.5C 76.5,249.167 76.5,250.833 76.5,252.5C 75.5,252.5 74.5,252.5 73.5,252.5C 73.6567,253.873 73.49,255.207 73,256.5C 67.0239,251.74 67.0239,247.073 73,242.5C 74.5107,239.204 75.6774,235.871 76.5,232.5C 76.3915,230.486 77.0582,228.82 78.5,227.5C 81.7637,224.599 84.4304,221.266 86.5,217.5 Z"/></g>
<g><path style="opacity:1" fill="#f67835" d="M 30.5,234.5 C 29.0582,235.82 28.3915,237.486 28.5,239.5C 24.6209,242.419 22.6209,246.419 22.5,251.5C 21.8501,251.804 21.1835,252.137 20.5,252.5C 19.8333,254.5 19.1667,256.5 18.5,258.5C 17.513,255.232 17.1796,251.898 17.5,248.5C 17.5,248.167 17.5,247.833 17.5,247.5C 20.9652,243.462 23.2986,238.795 24.5,233.5C 24.5,232.833 24.5,232.167 24.5,231.5C 24.5,231.167 24.5,230.833 24.5,230.5C 26.1667,229.5 27.5,228.167 28.5,226.5C 30.1237,224.863 31.1237,225.197 31.5,227.5C 30.7766,229.782 30.4433,232.116 30.5,234.5 Z"/></g>
<g><path style="opacity:1" fill="#32b7d6" d="M 145.5,243.5 C 148.577,250.804 150.577,258.47 151.5,266.5C 150.542,266.047 149.708,265.381 149,264.5C 148.667,264.833 148.333,265.167 148,265.5C 148.454,261.812 148.287,258.145 147.5,254.5C 145.706,257.719 144.206,261.052 143,264.5C 142.171,259.66 140.504,259.327 138,263.5C 134.832,261.842 133.165,259.175 133,255.5C 130.147,251.765 127.313,248.098 124.5,244.5C 124.5,244.167 124.5,243.833 124.5,243.5C 125.542,242.209 126.708,242.209 128,243.5C 128.869,246.33 130.036,248.997 131.5,251.5C 133.645,250.318 133.645,248.818 131.5,247C 132.924,244.899 134.258,242.733 135.5,240.5C 138.863,241.506 142.196,242.506 145.5,243.5 Z"/></g>
<g><path style="opacity:1" fill="#167abc" d="M 111.5,214.5 C 111.833,214.5 112.167,214.5 112.5,214.5C 113.543,222.801 114.209,231.134 114.5,239.5C 115.822,239.67 116.989,239.337 118,238.5C 118.471,240.246 119.138,241.913 120,243.5C 120.278,242.584 120.778,241.918 121.5,241.5C 121.833,242.5 122.5,243.167 123.5,243.5C 123.5,244.5 123.5,245.5 123.5,246.5C 127.893,252.902 131.893,259.568 135.5,266.5C 133.61,266.703 132.11,266.037 131,264.5C 129.963,261.595 128.796,258.761 127.5,256C 125.866,255.506 124.199,255.34 122.5,255.5C 120.737,254.37 118.904,254.37 117,255.5C 115.553,255.055 114.22,254.388 113,253.5C 112.05,254.022 111.216,254.689 110.5,255.5C 109.5,253.5 108.5,251.5 107.5,249.5C 106.756,250.991 106.09,252.491 105.5,254C 104.5,254.667 103.5,254.667 102.5,254C 101.531,249.263 101.197,244.43 101.5,239.5C 102.889,235.476 104.222,231.309 105.5,227C 107.894,223.71 109.894,220.21 111.5,216.5C 111.5,215.833 111.5,215.167 111.5,214.5 Z"/></g>
<g><path style="opacity:1" fill="#d97954" d="M 28.5,239.5 C 27.4401,244.041 25.4401,248.041 22.5,251.5C 22.6209,246.419 24.6209,242.419 28.5,239.5 Z"/></g>
<g><path style="opacity:0.498" fill="#ec976f" d="M 24.5,233.5 C 23.2986,238.795 20.9652,243.462 17.5,247.5C 18.9307,242.989 20.5974,238.656 22.5,234.5C 23.1667,234.167 23.8333,233.833 24.5,233.5 Z"/></g>
<g><path style="opacity:0.812" fill="#7bd4ea" d="M 90.5,239.5 C 91.1667,244.833 91.8333,250.167 92.5,255.5C 91.209,255.263 90.209,255.596 89.5,256.5C 88.3043,250.777 88.6376,245.11 90.5,239.5 Z"/></g>
<g><path style="opacity:1" fill="#244d9c" d="M 39.5,255.5 C 39.5,262.167 39.5,268.833 39.5,275.5C 38.7321,274.737 38.2321,273.737 38,272.5C 37.6667,272.833 37.3333,273.167 37,273.5C 35.872,271.655 35.372,269.655 35.5,267.5C 34.5,267.5 33.5,267.5 32.5,267.5C 31.8333,270.167 31.1667,272.833 30.5,275.5C 26.1946,275.087 25.5279,273.254 28.5,270C 28.3699,268.941 27.8699,268.108 27,267.5C 24.843,270.656 22.343,273.489 19.5,276C 20.8452,281.738 20.1786,287.238 17.5,292.5C 17.4734,295.23 18.1401,297.73 19.5,300C 19.0566,301.825 18.7233,303.658 18.5,305.5C 17.0762,303.485 16.4095,301.152 16.5,298.5C 16.5,295.833 16.5,293.167 16.5,290.5C 16.5,285.833 16.5,281.167 16.5,276.5C 16.5,276.167 16.5,275.833 16.5,275.5C 18.0139,270.661 19.3472,265.661 20.5,260.5C 20.5,260.167 20.5,259.833 20.5,259.5C 21.4959,259.586 22.3292,259.252 23,258.5C 23.3333,256.5 23.6667,254.5 24,252.5C 24.3826,251.944 24.8826,251.611 25.5,251.5C 27.1238,251.64 28.2904,250.973 29,249.5C 30.659,250.831 32.3257,252.165 34,253.5C 35.15,252.576 36.15,252.576 37,253.5C 37.2568,251.705 37.9235,249.705 39,247.5C 39.4974,250.146 39.6641,252.813 39.5,255.5 Z"/></g>
<g><path style="opacity:1" fill="#1f5ca3" d="M 111.5,216.5 C 109.894,220.21 107.894,223.71 105.5,227C 104.222,231.309 102.889,235.476 101.5,239.5C 100.493,242.322 99.6595,245.322 99,248.5C 98.6667,255.5 98.3333,262.5 98,269.5C 96.231,265.31 94.3976,261.31 92.5,257.5C 92.5,256.833 92.5,256.167 92.5,255.5C 91.8333,250.167 91.1667,244.833 90.5,239.5C 90.5,237.167 90.5,234.833 90.5,232.5C 90.8333,232.5 91.1667,232.5 91.5,232.5C 92.1667,231.833 92.8333,231.167 93.5,230.5C 94.1416,237.695 94.1416,244.862 93.5,252C 93.8333,253.167 94.1667,254.333 94.5,255.5C 94.8333,255.333 95.1667,255.167 95.5,255C 95.5,252.333 95.5,249.667 95.5,247C 97.0804,243.121 98.4137,239.121 99.5,235C 102.05,232.74 103.717,229.907 104.5,226.5C 103.5,225.667 102.5,224.833 101.5,224C 102.938,223.781 104.271,223.281 105.5,222.5C 107.236,220.097 109.236,218.097 111.5,216.5 Z"/></g>
<g><path style="opacity:1" fill="#1772b6" d="M 101.5,239.5 C 101.197,244.43 101.531,249.263 102.5,254C 103.5,254.667 104.5,254.667 105.5,254C 106.09,252.491 106.756,250.991 107.5,249.5C 108.5,251.5 109.5,253.5 110.5,255.5C 111.216,254.689 112.05,254.022 113,253.5C 114.22,254.388 115.553,255.055 117,255.5C 118.904,254.37 120.737,254.37 122.5,255.5C 119.134,258.526 115.467,261.192 111.5,263.5C 109.626,263.61 108.126,262.944 107,261.5C 106.83,259.285 106.163,257.285 105,255.5C 104.25,256.126 103.416,256.626 102.5,257C 105.941,260.947 106.941,265.447 105.5,270.5C 104.41,271.727 103.076,272.56 101.5,273C 102.5,273.333 103.5,273.667 104.5,274C 103.484,274.519 102.818,275.353 102.5,276.5C 103.046,278.135 103.38,279.801 103.5,281.5C 101.863,279.684 100.363,277.684 99,275.5C 96.0611,270.423 93.8944,265.09 92.5,259.5C 92.5,258.833 92.5,258.167 92.5,257.5C 94.3976,261.31 96.231,265.31 98,269.5C 98.3333,262.5 98.6667,255.5 99,248.5C 99.6595,245.322 100.493,242.322 101.5,239.5 Z"/></g>
<g><path style="opacity:1" fill="#3fcade" d="M 76.5,232.5 C 75.6774,235.871 74.5107,239.204 73,242.5C 67.0239,247.073 67.0239,251.74 73,256.5C 73.49,255.207 73.6567,253.873 73.5,252.5C 74.5,252.5 75.5,252.5 76.5,252.5C 76.5,250.833 76.5,249.167 76.5,247.5C 77.5,247.5 78.5,247.5 79.5,247.5C 72.6223,259.922 66.289,272.589 60.5,285.5C 60.8457,282.115 61.5123,278.782 62.5,275.5C 61.3831,272.93 60.5497,270.263 60,267.5C 58.7432,269.746 56.9099,271.079 54.5,271.5C 56.4539,267.262 58.1206,262.929 59.5,258.5C 62.3953,251.708 66.0619,245.375 70.5,239.5C 72.2632,236.98 74.2632,234.647 76.5,232.5 Z"/></g>
<g><path style="opacity:1" fill="#585277" d="M 28.5,239.5 C 28.8333,239.5 29.1667,239.5 29.5,239.5C 28.37,243.557 27.0367,247.557 25.5,251.5C 24.8826,251.611 24.3826,251.944 24,252.5C 23.6667,254.5 23.3333,256.5 23,258.5C 22.3292,259.252 21.4959,259.586 20.5,259.5C 21.1667,256.833 21.8333,254.167 22.5,251.5C 25.4401,248.041 27.4401,244.041 28.5,239.5 Z"/></g>
<g><path style="opacity:1" fill="#e97247" d="M 17.5,248.5 C 17.1796,251.898 17.513,255.232 18.5,258.5C 19.1667,256.5 19.8333,254.5 20.5,252.5C 21.1835,252.137 21.8501,251.804 22.5,251.5C 21.8333,254.167 21.1667,256.833 20.5,259.5C 20.5,259.833 20.5,260.167 20.5,260.5C 19.0337,261.347 18.2004,262.68 18,264.5C 17.4518,268.17 16.9518,271.837 16.5,275.5C 16.5,275.833 16.5,276.167 16.5,276.5C 15.6981,277.952 15.1981,279.618 15,281.5C 14.5006,275.843 14.3339,270.176 14.5,264.5C 14.6556,258.884 15.6556,253.551 17.5,248.5 Z"/></g>
<g><path style="opacity:1" fill="#236ab7" d="M 44.5,235.5 C 44.0295,237.288 43.6962,239.122 43.5,241C 43.9296,242.881 44.5963,244.381 45.5,245.5C 50.5584,246.614 55.0584,248.947 59,252.5C 56.8027,255.645 55.636,259.312 55.5,263.5C 53.9402,265.954 52.9402,268.62 52.5,271.5C 51.0433,275.178 49.3766,278.845 47.5,282.5C 47.1667,282.5 46.8333,282.5 46.5,282.5C 47.167,280.181 47.3336,277.847 47,275.5C 45,274.833 43,274.167 41,273.5C 40.5005,267.509 40.3338,261.509 40.5,255.5C 41.0049,249.131 41.8383,242.798 43,236.5C 43.3826,235.944 43.8826,235.611 44.5,235.5 Z"/></g>
<g><path style="opacity:1" fill="#35aad1" d="M 124.5,244.5 C 127.313,248.098 130.147,251.765 133,255.5C 133.165,259.175 134.832,261.842 138,263.5C 140.504,259.327 142.171,259.66 143,264.5C 144.206,261.052 145.706,257.719 147.5,254.5C 148.287,258.145 148.454,261.812 148,265.5C 148.333,265.167 148.667,264.833 149,264.5C 149.708,265.381 150.542,266.047 151.5,266.5C 152.817,276.598 152.817,286.598 151.5,296.5C 151.666,288.493 151.5,280.493 151,272.5C 150.692,273.308 150.192,273.975 149.5,274.5C 148.719,273.271 148.219,271.938 148,270.5C 147.64,272.421 146.806,274.088 145.5,275.5C 144.5,274.167 143.5,274.167 142.5,275.5C 141.943,273.668 140.943,272.335 139.5,271.5C 137.818,270.173 136.485,268.506 135.5,266.5C 131.893,259.568 127.893,252.902 123.5,246.5C 124.338,246.158 124.672,245.492 124.5,244.5 Z"/></g>
<g><path style="opacity:1" fill="#265eb1" d="M 39.5,255.5 C 39.8333,255.5 40.1667,255.5 40.5,255.5C 40.3338,261.509 40.5005,267.509 41,273.5C 43,274.167 45,274.833 47,275.5C 47.3336,277.847 47.167,280.181 46.5,282.5C 46.5,283.5 46.5,284.5 46.5,285.5C 44.5991,289.837 43.4324,294.503 43,299.5C 42.4536,306.184 42.6203,312.851 43.5,319.5C 42.5933,317.343 41.9267,315.01 41.5,312.5C 41.5,304.833 41.5,297.167 41.5,289.5C 39.8874,284.993 39.2207,280.327 39.5,275.5C 39.5,268.833 39.5,262.167 39.5,255.5 Z"/></g>
<g><path style="opacity:1" fill="#1a6fb6" d="M 122.5,255.5 C 124.199,255.34 125.866,255.506 127.5,256C 128.796,258.761 129.963,261.595 131,264.5C 132.11,266.037 133.61,266.703 135.5,266.5C 136.485,268.506 137.818,270.173 139.5,271.5C 139.629,273.216 139.962,274.883 140.5,276.5C 139.21,275.942 138.377,274.942 138,273.5C 137.692,274.308 137.192,274.975 136.5,275.5C 135.526,273.257 135.192,270.924 135.5,268.5C 134.178,268.67 133.011,268.337 132,267.5C 130.887,268.76 130.72,269.927 131.5,271C 130.234,271.309 129.067,271.809 128,272.5C 127.252,270.668 126.252,269.001 125,267.5C 120.403,270.191 115.569,272.358 110.5,274C 109.216,274.684 108.049,274.517 107,273.5C 106.696,275.441 105.863,277.107 104.5,278.5C 106.024,281.751 107.024,284.751 107.5,287.5C 105.684,285.882 104.351,283.882 103.5,281.5C 103.38,279.801 103.046,278.135 102.5,276.5C 102.818,275.353 103.484,274.519 104.5,274C 103.5,273.667 102.5,273.333 101.5,273C 103.076,272.56 104.41,271.727 105.5,270.5C 106.941,265.447 105.941,260.947 102.5,257C 103.416,256.626 104.25,256.126 105,255.5C 106.163,257.285 106.83,259.285 107,261.5C 108.126,262.944 109.626,263.61 111.5,263.5C 115.467,261.192 119.134,258.526 122.5,255.5 Z"/></g>
<g><path style="opacity:1" fill="#20469e" d="M 39.5,275.5 C 39.2207,280.327 39.8874,284.993 41.5,289.5C 39.5,288.024 37.8334,286.191 36.5,284C 34.5273,283.505 32.5273,283.338 30.5,283.5C 28.6377,286.147 26.6377,288.814 24.5,291.5C 21.8603,289.378 22.1937,287.544 25.5,286C 24.7248,284.77 23.7248,284.437 22.5,285C 21.0437,287.266 20.2104,289.766 20,292.5C 19.2303,293.598 18.397,293.598 17.5,292.5C 20.1786,287.238 20.8452,281.738 19.5,276C 22.343,273.489 24.843,270.656 27,267.5C 27.8699,268.108 28.3699,268.941 28.5,270C 25.5279,273.254 26.1946,275.087 30.5,275.5C 31.1667,272.833 31.8333,270.167 32.5,267.5C 33.5,267.5 34.5,267.5 35.5,267.5C 35.372,269.655 35.872,271.655 37,273.5C 37.3333,273.167 37.6667,272.833 38,272.5C 38.2321,273.737 38.7321,274.737 39.5,275.5 Z"/></g>
<g><path style="opacity:1" fill="#1c67b2" d="M 140.5,276.5 C 141.906,276.973 142.573,277.973 142.5,279.5C 144.043,284.126 145.376,288.793 146.5,293.5C 144.732,290.394 143.232,287.061 142,283.5C 141.167,282 140,280.833 138.5,280C 138.833,279.667 139.167,279.333 139.5,279C 137.3,279.584 135.133,279.418 133,278.5C 131.294,279.308 130.461,280.641 130.5,282.5C 127.973,283.517 125.473,283.517 123,282.5C 120.765,283.368 118.598,284.368 116.5,285.5C 120.542,287.77 120.376,289.77 116,291.5C 115.506,289.866 115.34,288.199 115.5,286.5C 114.5,286.5 113.5,286.5 112.5,286.5C 113.197,290.897 114.197,295.231 115.5,299.5C 114.833,298.833 114.167,298.167 113.5,297.5C 112.557,294.6 110.89,292.267 108.5,290.5C 108.443,289.391 108.11,288.391 107.5,287.5C 107.024,284.751 106.024,281.751 104.5,278.5C 105.863,277.107 106.696,275.441 107,273.5C 108.049,274.517 109.216,274.684 110.5,274C 115.569,272.358 120.403,270.191 125,267.5C 126.252,269.001 127.252,270.668 128,272.5C 129.067,271.809 130.234,271.309 131.5,271C 130.72,269.927 130.887,268.76 132,267.5C 133.011,268.337 134.178,268.67 135.5,268.5C 135.192,270.924 135.526,273.257 136.5,275.5C 137.192,274.975 137.692,274.308 138,273.5C 138.377,274.942 139.21,275.942 140.5,276.5 Z"/></g>
<g><path style="opacity:1" fill="#3bb3d5" d="M 59.5,258.5 C 58.1206,262.929 56.4539,267.262 54.5,271.5C 56.9099,271.079 58.7432,269.746 60,267.5C 60.5497,270.263 61.3831,272.93 62.5,275.5C 61.5123,278.782 60.8457,282.115 60.5,285.5C 58.6113,293.636 56.6113,301.636 54.5,309.5C 54.5,306.167 54.5,302.833 54.5,299.5C 58.7966,291.864 58.2966,284.531 53,277.5C 52.5045,275.527 52.3379,273.527 52.5,271.5C 52.9402,268.62 53.9402,265.954 55.5,263.5C 56.8333,261.833 58.1667,260.167 59.5,258.5 Z"/></g>
<g><path style="opacity:1" fill="#8a5966" d="M 20.5,260.5 C 19.3472,265.661 18.0139,270.661 16.5,275.5C 16.9518,271.837 17.4518,268.17 18,264.5C 18.2004,262.68 19.0337,261.347 20.5,260.5 Z"/></g>
<g><path style="opacity:1" fill="#379ccc" d="M 151.5,296.5 C 151.39,301.622 150.056,306.288 147.5,310.5C 148.594,304.537 149.094,298.537 149,292.5C 147.738,288.687 147.071,284.687 147,280.5C 146.667,281.167 146.333,281.833 146,282.5C 145.241,280.937 144.074,279.937 142.5,279.5C 142.573,277.973 141.906,276.973 140.5,276.5C 139.962,274.883 139.629,273.216 139.5,271.5C 140.943,272.335 141.943,273.668 142.5,275.5C 143.5,274.167 144.5,274.167 145.5,275.5C 146.806,274.088 147.64,272.421 148,270.5C 148.219,271.938 148.719,273.271 149.5,274.5C 150.192,273.975 150.692,273.308 151,272.5C 151.5,280.493 151.666,288.493 151.5,296.5 Z"/></g>
<g><path style="opacity:1" fill="#24419f" d="M 41.5,289.5 C 41.5,297.167 41.5,304.833 41.5,312.5C 40.0598,311.054 39.3932,309.221 39.5,307C 40.3326,303.516 40.4993,300.016 40,296.5C 38.7458,299.976 38.0791,303.642 38,307.5C 37.6667,306.5 37.3333,305.5 37,304.5C 34.3004,309.552 33.8004,314.886 35.5,320.5C 32.4084,326.021 31.4084,325.688 32.5,319.5C 32.1132,317.726 31.4465,316.059 30.5,314.5C 32.4377,310.843 31.4377,308.843 27.5,308.5C 28.7042,313.156 28.7042,317.823 27.5,322.5C 25.7376,321.738 24.7376,320.404 24.5,318.5C 24.6107,317.883 24.944,317.383 25.5,317C 23.3757,314.769 21.709,312.269 20.5,309.5C 18.8958,308.713 18.2291,307.38 18.5,305.5C 18.7233,303.658 19.0566,301.825 19.5,300C 18.1401,297.73 17.4734,295.23 17.5,292.5C 18.397,293.598 19.2303,293.598 20,292.5C 20.2104,289.766 21.0437,287.266 22.5,285C 23.7248,284.437 24.7248,284.77 25.5,286C 22.1937,287.544 21.8603,289.378 24.5,291.5C 26.6377,288.814 28.6377,286.147 30.5,283.5C 32.5273,283.338 34.5273,283.505 36.5,284C 37.8334,286.191 39.5,288.024 41.5,289.5 Z"/></g>
<g><path style="opacity:0.808" fill="#bd7d76" d="M 14.5,264.5 C 14.3339,270.176 14.5006,275.843 15,281.5C 15.1981,279.618 15.6981,277.952 16.5,276.5C 16.5,281.167 16.5,285.833 16.5,290.5C 15.8333,290.833 15.1667,291.167 14.5,291.5C 13.2097,282.372 13.2097,273.372 14.5,264.5 Z"/></g>
<g><path style="opacity:1" fill="#26a5d0" d="M 52.5,271.5 C 52.3379,273.527 52.5045,275.527 53,277.5C 58.2966,284.531 58.7966,291.864 54.5,299.5C 53.0568,300.335 52.0568,301.668 51.5,303.5C 50.8333,300.167 50.1667,296.833 49.5,293.5C 48.3652,292.897 47.3652,292.564 46.5,292.5C 47.4147,291.672 48.0814,290.672 48.5,289.5C 47.7766,287.218 47.4433,284.884 47.5,282.5C 49.3766,278.845 51.0433,275.178 52.5,271.5 Z"/></g>
<g><path style="opacity:1" fill="#52efee" d="M 92.5,255.5 C 92.5,256.167 92.5,256.833 92.5,257.5C 92.5,258.167 92.5,258.833 92.5,259.5C 91.0511,264.814 91.3844,270.147 93.5,275.5C 95.6749,270.637 96.6749,271.303 96.5,277.5C 97.5,277.5 98.5,277.5 99.5,277.5C 99.3354,280.518 99.502,283.518 100,286.5C 100.667,285.833 101.333,285.167 102,284.5C 103.999,286.493 105.499,288.827 106.5,291.5C 105.68,293.111 104.346,293.778 102.5,293.5C 101.833,293.5 101.167,293.5 100.5,293.5C 92.5948,282.449 88.9281,270.116 89.5,256.5C 90.209,255.596 91.209,255.263 92.5,255.5 Z"/></g>
<g><path style="opacity:1" fill="#205cad" d="M 146.5,293.5 C 146.822,299.358 146.489,305.025 145.5,310.5C 145.666,305.489 145.499,300.489 145,295.5C 144.333,294.167 143.667,292.833 143,291.5C 142.5,292.667 141.667,293.5 140.5,294C 141.167,294.333 141.833,294.667 142.5,295C 138.447,296.602 135.114,298.269 132.5,300C 133.167,300.333 133.833,300.667 134.5,301C 131.748,301.212 129.248,302.045 127,303.5C 125.85,302.576 124.85,302.576 124,303.5C 123.309,301.109 122.309,301.109 121,303.5C 121.258,309.798 121.425,316.131 121.5,322.5C 122.035,327.312 121.035,331.645 118.5,335.5C 119.94,330.648 120.606,325.648 120.5,320.5C 120.722,316.203 120.055,312.203 118.5,308.5C 117.759,305.366 116.759,302.366 115.5,299.5C 114.197,295.231 113.197,290.897 112.5,286.5C 113.5,286.5 114.5,286.5 115.5,286.5C 115.34,288.199 115.506,289.866 116,291.5C 120.376,289.77 120.542,287.77 116.5,285.5C 118.598,284.368 120.765,283.368 123,282.5C 125.473,283.517 127.973,283.517 130.5,282.5C 130.461,280.641 131.294,279.308 133,278.5C 135.133,279.418 137.3,279.584 139.5,279C 139.167,279.333 138.833,279.667 138.5,280C 140,280.833 141.167,282 142,283.5C 143.232,287.061 144.732,290.394 146.5,293.5 Z"/></g>
<g><path style="opacity:1" fill="#2fe3ee" d="M 92.5,259.5 C 93.8944,265.09 96.0611,270.423 99,275.5C 100.363,277.684 101.863,279.684 103.5,281.5C 104.351,283.882 105.684,285.882 107.5,287.5C 108.11,288.391 108.443,289.391 108.5,290.5C 109.682,293.806 110.515,297.14 111,300.5C 110.667,301.167 110.333,301.833 110,302.5C 108.644,301.62 107.144,301.286 105.5,301.5C 105.534,298.42 104.534,295.753 102.5,293.5C 104.346,293.778 105.68,293.111 106.5,291.5C 105.499,288.827 103.999,286.493 102,284.5C 101.333,285.167 100.667,285.833 100,286.5C 99.502,283.518 99.3354,280.518 99.5,277.5C 98.5,277.5 97.5,277.5 96.5,277.5C 96.6749,271.303 95.6749,270.637 93.5,275.5C 91.3844,270.147 91.0511,264.814 92.5,259.5 Z"/></g>
<g><path style="opacity:1" fill="#348dcc" d="M 142.5,279.5 C 144.074,279.937 145.241,280.937 146,282.5C 146.333,281.833 146.667,281.167 147,280.5C 147.071,284.687 147.738,288.687 149,292.5C 149.094,298.537 148.594,304.537 147.5,310.5C 147.065,313.157 146.065,315.491 144.5,317.5C 144.448,315.097 144.781,312.764 145.5,310.5C 146.489,305.025 146.822,299.358 146.5,293.5C 145.376,288.793 144.043,284.126 142.5,279.5 Z"/></g>
<g><path style="opacity:0.165" fill="#8b83a0" d="M 16.5,290.5 C 16.5,293.167 16.5,295.833 16.5,298.5C 15.5933,296.343 14.9267,294.01 14.5,291.5C 15.1667,291.167 15.8333,290.833 16.5,290.5 Z"/></g>
<g><path style="opacity:1" fill="#2654aa" d="M 145.5,310.5 C 144.781,312.764 144.448,315.097 144.5,317.5C 143.492,319.544 142.492,321.544 141.5,323.5C 139.595,319.768 136.595,317.268 132.5,316C 136.852,315.581 137.185,314.914 133.5,314C 133.957,313.586 134.291,313.086 134.5,312.5C 130.959,311.8 127.459,311.133 124,310.5C 122.195,313.059 122.028,315.725 123.5,318.5C 123.332,320.171 122.665,321.504 121.5,322.5C 121.425,316.131 121.258,309.798 121,303.5C 122.309,301.109 123.309,301.109 124,303.5C 124.85,302.576 125.85,302.576 127,303.5C 129.248,302.045 131.748,301.212 134.5,301C 133.833,300.667 133.167,300.333 132.5,300C 135.114,298.269 138.447,296.602 142.5,295C 141.833,294.667 141.167,294.333 140.5,294C 141.667,293.5 142.5,292.667 143,291.5C 143.667,292.833 144.333,294.167 145,295.5C 145.499,300.489 145.666,305.489 145.5,310.5 Z"/></g>
<g><path style="opacity:0.997" fill="#2c94c9" d="M 46.5,282.5 C 46.8333,282.5 47.1667,282.5 47.5,282.5C 47.4433,284.884 47.7766,287.218 48.5,289.5C 48.0814,290.672 47.4147,291.672 46.5,292.5C 47.3652,292.564 48.3652,292.897 49.5,293.5C 50.1667,296.833 50.8333,300.167 51.5,303.5C 52.0568,301.668 53.0568,300.335 54.5,299.5C 54.5,302.833 54.5,306.167 54.5,309.5C 54.388,322.386 57.388,334.386 63.5,345.5C 58.0703,344.347 56.0703,341.014 57.5,335.5C 56.5,335.5 55.5,335.5 54.5,335.5C 54.4019,329.627 53.4019,329.294 51.5,334.5C 50.0361,327.542 48.8695,320.542 48,313.5C 46.8419,313.002 46.0085,312.169 45.5,311C 45.5862,302.716 45.9195,294.216 46.5,285.5C 46.5,284.5 46.5,283.5 46.5,282.5 Z"/></g>
<g><path style="opacity:1" fill="#4cd2e4" d="M 108.5,290.5 C 110.89,292.267 112.557,294.6 113.5,297.5C 114.167,300.833 114.833,304.167 115.5,307.5C 114.5,307.5 113.5,307.5 112.5,307.5C 112.658,310.902 112.324,314.236 111.5,317.5C 108.953,309.066 105.286,301.066 100.5,293.5C 101.167,293.5 101.833,293.5 102.5,293.5C 104.534,295.753 105.534,298.42 105.5,301.5C 107.144,301.286 108.644,301.62 110,302.5C 110.333,301.833 110.667,301.167 111,300.5C 110.515,297.14 109.682,293.806 108.5,290.5 Z"/></g>
<g><path style="opacity:1" fill="#2a42a4" d="M 41.5,312.5 C 41.9267,315.01 42.5933,317.343 43.5,319.5C 45.5634,324.855 47.73,330.188 50,335.5C 54.0584,340.723 58.5584,345.389 63.5,349.5C 63.9731,350.906 64.9731,351.573 66.5,351.5C 66.1788,353.048 65.1788,353.715 63.5,353.5C 61.597,353.204 59.9303,352.537 58.5,351.5C 58.0269,350.094 57.0269,349.427 55.5,349.5C 45.3051,344.307 36.9718,336.973 30.5,327.5C 30.1667,326.5 29.5,325.833 28.5,325.5C 27.596,324.791 27.2627,323.791 27.5,322.5C 28.7042,317.823 28.7042,313.156 27.5,308.5C 31.4377,308.843 32.4377,310.843 30.5,314.5C 31.4465,316.059 32.1132,317.726 32.5,319.5C 31.4084,325.688 32.4084,326.021 35.5,320.5C 33.8004,314.886 34.3004,309.552 37,304.5C 37.3333,305.5 37.6667,306.5 38,307.5C 38.0791,303.642 38.7458,299.976 40,296.5C 40.4993,300.016 40.3326,303.516 39.5,307C 39.3932,309.221 40.0598,311.054 41.5,312.5 Z"/></g>
<g><path style="opacity:0.333" fill="#767baf" d="M 20.5,309.5 C 21.709,312.269 23.3757,314.769 25.5,317C 24.944,317.383 24.6107,317.883 24.5,318.5C 22.0257,316.102 20.6924,313.102 20.5,309.5 Z"/></g>
<g><path style="opacity:1" fill="#2588ca" d="M 46.5,285.5 C 45.9195,294.216 45.5862,302.716 45.5,311C 46.0085,312.169 46.8419,313.002 48,313.5C 48.8695,320.542 50.0361,327.542 51.5,334.5C 53.4019,329.294 54.4019,329.627 54.5,335.5C 55.5,335.5 56.5,335.5 57.5,335.5C 56.0703,341.014 58.0703,344.347 63.5,345.5C 63.5,346.833 63.5,348.167 63.5,349.5C 58.5584,345.389 54.0584,340.723 50,335.5C 47.73,330.188 45.5634,324.855 43.5,319.5C 42.6203,312.851 42.4536,306.184 43,299.5C 43.4324,294.503 44.5991,289.837 46.5,285.5 Z"/></g>
<g><path style="opacity:0.998" fill="#46b4d8" d="M 113.5,297.5 C 114.167,298.167 114.833,298.833 115.5,299.5C 116.759,302.366 117.759,305.366 118.5,308.5C 119.972,315.372 119.472,322.038 117,328.5C 116,327.833 115,327.167 114,326.5C 113.19,333.404 111.69,340.071 109.5,346.5C 106.278,347.41 103.611,349.077 101.5,351.5C 110.084,341.85 113.418,330.516 111.5,317.5C 112.324,314.236 112.658,310.902 112.5,307.5C 113.5,307.5 114.5,307.5 115.5,307.5C 114.833,304.167 114.167,300.833 113.5,297.5 Z"/></g>
<g><path style="opacity:0.004" fill="#d6dffc" d="M 28.5,325.5 C 29.5,325.833 30.1667,326.5 30.5,327.5C 29.1667,327.5 28.5,326.833 28.5,325.5 Z"/></g>
<g><path style="opacity:1" fill="#294aa7" d="M 141.5,323.5 C 140.5,324.833 139.5,326.167 138.5,327.5C 137.06,328.363 135.726,328.363 134.5,327.5C 131.833,328.5 131.833,329.5 134.5,330.5C 133.311,331.429 131.978,331.762 130.5,331.5C 130.5,332.833 130.5,334.167 130.5,335.5C 128.801,335.34 127.134,335.506 125.5,336C 126.337,337.011 126.67,338.178 126.5,339.5C 125.504,339.586 124.671,339.252 124,338.5C 122.331,340.169 121.498,342.169 121.5,344.5C 119.833,344.5 118.167,344.5 116.5,344.5C 116.5,345.5 116.5,346.5 116.5,347.5C 114.853,349.326 112.853,350.66 110.5,351.5C 108.488,352.014 106.488,352.18 104.5,352C 106.686,350.588 108.352,348.755 109.5,346.5C 113.218,343.384 116.218,339.718 118.5,335.5C 121.035,331.645 122.035,327.312 121.5,322.5C 122.665,321.504 123.332,320.171 123.5,318.5C 122.028,315.725 122.195,313.059 124,310.5C 127.459,311.133 130.959,311.8 134.5,312.5C 134.291,313.086 133.957,313.586 133.5,314C 137.185,314.914 136.852,315.581 132.5,316C 136.595,317.268 139.595,319.768 141.5,323.5 Z"/></g>
<g><path style="opacity:1" fill="#2a99d2" d="M 118.5,308.5 C 120.055,312.203 120.722,316.203 120.5,320.5C 120.606,325.648 119.94,330.648 118.5,335.5C 116.218,339.718 113.218,343.384 109.5,346.5C 111.69,340.071 113.19,333.404 114,326.5C 115,327.167 116,327.833 117,328.5C 119.472,322.038 119.972,315.372 118.5,308.5 Z"/></g>
<g><path style="opacity:0.986" fill="#6671b6" d="M 138.5,327.5 C 135.388,332.394 131.388,336.394 126.5,339.5C 126.67,338.178 126.337,337.011 125.5,336C 127.134,335.506 128.801,335.34 130.5,335.5C 130.5,334.167 130.5,332.833 130.5,331.5C 131.978,331.762 133.311,331.429 134.5,330.5C 131.833,329.5 131.833,328.5 134.5,327.5C 135.726,328.363 137.06,328.363 138.5,327.5 Z"/></g>
<g><path style="opacity:0.965" fill="#6571af" d="M 126.5,339.5 C 125.578,341.816 123.911,343.483 121.5,344.5C 121.498,342.169 122.331,340.169 124,338.5C 124.671,339.252 125.504,339.586 126.5,339.5 Z"/></g>
<g><path style="opacity:0.89" fill="#7982bb" d="M 121.5,344.5 C 120.035,345.737 118.368,346.737 116.5,347.5C 116.5,346.5 116.5,345.5 116.5,344.5C 118.167,344.5 119.833,344.5 121.5,344.5 Z"/></g>
<g><path style="opacity:0.996" fill="#73a8d9" d="M 63.5,345.5 C 65.1563,347.46 66.823,349.46 68.5,351.5C 67.8333,351.5 67.1667,351.5 66.5,351.5C 64.9731,351.573 63.9731,350.906 63.5,349.5C 63.5,348.167 63.5,346.833 63.5,345.5 Z"/></g>
<g><path style="opacity:0.275" fill="#979cd2" d="M 55.5,349.5 C 57.0269,349.427 58.0269,350.094 58.5,351.5C 56.9731,351.573 55.9731,350.906 55.5,349.5 Z"/></g>
<g><path style="opacity:0.004" fill="#c7dff5" d="M 68.5,351.5 C 70.2644,352.326 71.5977,353.659 72.5,355.5C 71.8333,355.5 71.1667,355.5 70.5,355.5C 69.8333,354.167 69.1667,352.833 68.5,351.5 Z"/></g>
<g><path style="opacity:0.918" fill="#6282bd" d="M 109.5,346.5 C 108.352,348.755 106.686,350.588 104.5,352C 106.488,352.18 108.488,352.014 110.5,351.5C 106.199,354.317 101.533,356.65 96.5,358.5C 95.0683,358.267 94.5683,357.6 95,356.5C 96.9263,354.461 99.093,352.794 101.5,351.5C 103.611,349.077 106.278,347.41 109.5,346.5 Z"/></g>
<g><path style="opacity:0.89" fill="#4a6ab4" d="M 66.5,351.5 C 67.1667,351.5 67.8333,351.5 68.5,351.5C 69.1667,352.833 69.8333,354.167 70.5,355.5C 69.1667,355.5 67.8333,355.5 66.5,355.5C 64.9731,355.573 63.9731,354.906 63.5,353.5C 65.1788,353.715 66.1788,353.048 66.5,351.5 Z"/></g>
<g><path style="opacity:0.651" fill="#748db3" d="M 66.5,355.5 C 67.8333,355.5 69.1667,355.5 70.5,355.5C 71.1667,355.5 71.8333,355.5 72.5,355.5C 73.9221,355.75 74.9221,356.583 75.5,358C 72.1421,358.314 69.1421,357.48 66.5,355.5 Z"/></g>
</svg>
